<svg width="983" height="764" viewBox="0 0 983 764" fill="none" xmlns="http://www.w3.org/2000/svg">
<g id="location" clip-path="url(#clip0)">
<path id="space" d="M959.181 474.197C1071.6 592.503 745.716 763 482.393 763C219.07 763 36.892 630.895 5.60486 474.197C-70.2557 94.2575 651.955 -147.23 482.393 185.395C235.237 670.234 870.648 381.029 959.181 474.197Z" fill="#3F3D56"/>
<g id="Frame 3">
<path id="planet" d="M149.594 196.825C74.5265 193.52 16.3226 177.327 17.0872 159.961C17.5457 149.549 38.7905 141.177 75.374 136.991C75.5049 136.976 75.6377 136.986 75.7647 137.021C75.8916 137.057 76.0103 137.117 76.1138 137.199C76.2173 137.281 76.3037 137.382 76.3679 137.497C76.4321 137.613 76.4728 137.739 76.4878 137.87C76.5028 138.002 76.4917 138.134 76.4552 138.261C76.4187 138.388 76.3575 138.506 76.2751 138.609C76.1927 138.712 76.0907 138.798 75.9751 138.861C75.8594 138.924 75.7324 138.964 75.6013 138.978C41.1396 142.921 19.4839 150.995 19.0853 160.049C18.3938 175.753 78.1996 191.68 149.682 194.827C221.164 197.975 282.138 187.366 282.83 171.662C283.23 162.57 262.233 152.596 228.032 145.633C227.903 145.607 227.78 145.556 227.671 145.483C227.562 145.41 227.468 145.315 227.395 145.206C227.323 145.096 227.272 144.973 227.247 144.844C227.222 144.715 227.222 144.582 227.249 144.453C227.275 144.324 227.326 144.202 227.4 144.093C227.474 143.984 227.568 143.89 227.678 143.818C227.788 143.745 227.911 143.695 228.04 143.671C228.169 143.646 228.302 143.647 228.431 143.673C264.732 151.064 285.288 161.297 284.828 171.75C284.063 189.116 224.661 200.131 149.594 196.825Z" fill="#369F93"/>
<path id="planet_2" d="M82.9229 199.734C89.2028 211.663 98.5053 221.735 109.9 228.94C121.294 236.145 134.381 240.232 147.851 240.791C161.321 241.35 174.702 238.362 186.654 232.126C198.607 225.889 208.712 216.624 215.959 205.256C171.546 205.854 127.133 204.011 82.9229 199.734Z" fill="#CED843"/>
<path id="planet_3" d="M224.263 184.221C228.042 172.884 229.131 160.824 227.443 148.994C225.756 137.165 221.338 125.89 214.54 116.063C207.741 106.235 198.749 98.1254 188.274 92.3745C177.8 86.6236 166.13 83.3896 154.189 82.9284C142.249 82.4673 130.365 84.7918 119.478 89.7178C108.591 94.6438 98.9995 102.036 91.4635 111.31C83.9274 120.583 78.6533 131.484 76.0585 143.148C73.4636 154.813 73.6193 166.921 76.5132 178.515C125.309 186.798 174.973 188.716 224.263 184.221Z" fill="#CED843"/>
<path id="planet_4" d="M168.833 132.601C173.804 132.601 177.833 128.571 177.833 123.601C177.833 118.63 173.804 114.601 168.833 114.601C163.863 114.601 159.833 118.63 159.833 123.601C159.833 128.571 163.863 132.601 168.833 132.601Z" fill="white"/>
<path id="planet_5" d="M122.513 167.591C130.798 167.591 137.513 160.876 137.513 152.591C137.513 144.307 130.798 137.591 122.513 137.591C114.229 137.591 107.513 144.307 107.513 152.591C107.513 160.876 114.229 167.591 122.513 167.591Z" fill="white"/>
</g>
<g id="Frame 2">
<path id="star" d="M348.905 152.898C354.427 152.898 358.905 148.421 358.905 142.898C358.905 137.375 354.427 132.898 348.905 132.898C343.382 132.898 338.905 137.375 338.905 142.898C338.905 148.421 343.382 152.898 348.905 152.898Z" fill="#D6DE67"/>
<path id="star_2" d="M122.905 458.898C126.219 458.898 128.905 456.212 128.905 452.898C128.905 449.584 126.219 446.898 122.905 446.898C119.591 446.898 116.905 449.584 116.905 452.898C116.905 456.212 119.591 458.898 122.905 458.898Z" fill="#E6E6E6"/>
<path id="star_3" d="M542.905 664.898C546.219 664.898 548.905 662.212 548.905 658.898C548.905 655.584 546.219 652.898 542.905 652.898C539.591 652.898 536.905 655.584 536.905 658.898C536.905 662.212 539.591 664.898 542.905 664.898Z" fill="#E7F50F"/>
<path id="star_4" d="M151.905 342.898C153.562 342.898 154.905 341.555 154.905 339.898C154.905 338.241 153.562 336.898 151.905 336.898C150.248 336.898 148.905 338.241 148.905 339.898C148.905 341.555 150.248 342.898 151.905 342.898Z" fill="#E6E6E6"/>
<path id="star_5" d="M399.905 566.898C401.562 566.898 402.905 565.555 402.905 563.898C402.905 562.241 401.562 560.898 399.905 560.898C398.248 560.898 396.905 562.241 396.905 563.898C396.905 565.555 398.248 566.898 399.905 566.898Z" fill="#E6E6E6"/>
<path id="star_6" d="M850.905 537.898C852.562 537.898 853.905 536.555 853.905 534.898C853.905 533.241 852.562 531.898 850.905 531.898C849.248 531.898 847.905 533.241 847.905 534.898C847.905 536.555 849.248 537.898 850.905 537.898Z" fill="#E6E6E6"/>
<path id="star_7" d="M709.905 626.898C711.562 626.898 712.905 625.555 712.905 623.898C712.905 622.241 711.562 620.898 709.905 620.898C708.248 620.898 706.905 622.241 706.905 623.898C706.905 625.555 708.248 626.898 709.905 626.898Z" fill="#E6E6E6"/>
<path id="star_8" d="M562.905 518.898C564.562 518.898 565.905 517.555 565.905 515.898C565.905 514.241 564.562 512.898 562.905 512.898C561.248 512.898 559.905 514.241 559.905 515.898C559.905 517.555 561.248 518.898 562.905 518.898Z" fill="#E6E6E6"/>
<path id="star_9" d="M372.905 222.898C374.562 222.898 375.905 221.555 375.905 219.898C375.905 218.241 374.562 216.898 372.905 216.898C371.248 216.898 369.905 218.241 369.905 219.898C369.905 221.555 371.248 222.898 372.905 222.898Z" fill="#E6E6E6"/>
<path id="star_10" d="M396.905 74.8982C398.562 74.8982 399.905 73.555 399.905 71.8981C399.905 70.2412 398.562 68.8981 396.905 68.8981C395.248 68.8981 393.905 70.2412 393.905 71.8981C393.905 73.555 395.248 74.8982 396.905 74.8982Z" fill="#E6E6E6"/>
<path id="star_11" d="M703.905 526.898C705.562 526.898 706.905 525.555 706.905 523.898C706.905 522.241 705.562 520.898 703.905 520.898C702.248 520.898 700.905 522.241 700.905 523.898C700.905 525.555 702.248 526.898 703.905 526.898Z" fill="#E6E6E6"/>
<path id="star_12" d="M382.905 697.898C384.562 697.898 385.905 696.555 385.905 694.898C385.905 693.241 384.562 691.898 382.905 691.898C381.248 691.898 379.905 693.241 379.905 694.898C379.905 696.555 381.248 697.898 382.905 697.898Z" fill="#E6E6E6"/>
<path id="star_13" d="M234.905 634.898C236.562 634.898 237.905 633.555 237.905 631.898C237.905 630.241 236.562 628.898 234.905 628.898C233.248 628.898 231.905 630.241 231.905 631.898C231.905 633.555 233.248 634.898 234.905 634.898Z" fill="#E6E6E6"/>
</g>
<g id="Frame 4">
<path id="location_2" d="M352 355.843C352 385.479 310.441 454.535 298.295 474.083C297.929 474.674 297.437 475.157 296.863 475.491C296.289 475.825 295.649 476 295 476C294.351 476 293.711 475.825 293.137 475.491C292.563 475.157 292.071 474.674 291.705 474.083C279.559 454.535 238 385.479 238 355.843C238 347.59 239.474 339.418 242.339 331.794C245.203 324.169 249.402 317.242 254.695 311.406C259.988 305.571 266.271 300.942 273.187 297.784C280.103 294.625 287.515 293 295 293C302.485 293 309.897 294.625 316.813 297.784C323.729 300.942 330.012 305.571 335.305 311.406C340.598 317.242 344.797 324.169 347.661 331.794C350.526 339.418 352 347.59 352 355.843Z" fill="white"/>
<path id="location_3" d="M294.905 387.898C310.921 387.898 323.905 374.914 323.905 358.898C323.905 342.882 310.921 329.898 294.905 329.898C278.889 329.898 265.905 342.882 265.905 358.898C265.905 374.914 278.889 387.898 294.905 387.898Z" fill="#F98923"/>
<path id="location_4" d="M294.405 502.898C312.906 502.898 327.905 499.988 327.905 496.398C327.905 492.808 312.906 489.898 294.405 489.898C275.903 489.898 260.905 492.808 260.905 496.398C260.905 499.988 275.903 502.898 294.405 502.898Z" fill="white"/>
</g>
<g id="Frame 1">
<path id="woman" d="M816.853 317.92C816.6 318.411 816.385 318.922 816.212 319.448L768.429 332.725L759.818 324.298L745.403 335.631L759.197 352.03C760.311 353.355 761.825 354.283 763.512 354.674C765.198 355.065 766.966 354.899 768.549 354.199L820.166 331.415C821.917 332.63 823.997 333.284 826.128 333.288C828.26 333.293 830.343 332.649 832.099 331.441C833.855 330.233 835.203 328.519 835.961 326.527C836.72 324.535 836.854 322.359 836.346 320.289C835.838 318.219 834.711 316.352 833.116 314.938C831.522 313.523 829.534 312.628 827.418 312.371C825.302 312.114 823.158 312.507 821.27 313.498C819.383 314.489 817.843 316.031 816.853 317.92H816.853Z" fill="#FFB8B8"/>
<path id="woman_2" d="M766.746 333.503L748.81 347.463C748.3 347.86 747.71 348.142 747.081 348.291C746.451 348.44 745.797 348.451 745.163 348.324C744.529 348.197 743.93 347.935 743.406 347.556C742.883 347.176 742.447 346.688 742.129 346.125L730.982 326.398C728.964 323.776 728.069 320.46 728.492 317.178C728.915 313.897 730.622 310.917 733.239 308.892C735.856 306.867 739.17 305.963 742.453 306.378C745.735 306.792 748.72 308.492 750.751 311.104L767.089 326.698C767.557 327.144 767.923 327.686 768.162 328.287C768.402 328.888 768.508 329.533 768.476 330.179C768.443 330.825 768.272 331.456 767.973 332.03C767.675 332.603 767.256 333.106 766.746 333.503V333.503Z" fill="#FF63C5"/>
<path id="woman_3" d="M821.435 311.317L839.623 319.5C840.385 319.842 840.979 320.474 841.276 321.254C841.572 322.035 841.546 322.902 841.203 323.663L839.05 328.45C839.303 328.565 839.501 328.775 839.599 329.035C839.698 329.295 839.69 329.584 839.576 329.838L838.715 331.752C838.6 332.006 838.39 332.203 838.13 332.302C837.869 332.4 837.581 332.392 837.327 332.279L836.466 334.193C836.719 334.308 836.916 334.519 837.015 334.779C837.114 335.039 837.105 335.327 836.992 335.581L836.131 337.496C836.016 337.749 835.805 337.947 835.545 338.045C835.285 338.144 834.997 338.136 834.743 338.023L823.115 363.869C822.772 364.63 822.141 365.225 821.36 365.521C820.579 365.817 819.712 365.791 818.951 365.448L800.763 357.266C800.001 356.923 799.407 356.292 799.11 355.511C798.814 354.73 798.84 353.863 799.183 353.102L817.271 312.897C817.614 312.135 818.245 311.541 819.026 311.244C819.807 310.948 820.674 310.974 821.435 311.317Z" fill="#3F3D56"/>
<path id="woman_4" d="M804.065 354.719L818.656 361.29C819.387 361.617 820.218 361.641 820.967 361.358C821.716 361.075 822.323 360.507 822.655 359.778L829.394 344.789L831.735 339.593L837.833 326.031C838.159 325.301 838.183 324.472 837.9 323.725C837.617 322.978 837.05 322.373 836.322 322.042L831.735 319.974L821.721 315.471C820.99 315.145 820.159 315.122 819.411 315.407C818.664 315.692 818.06 316.263 817.732 316.993L811.833 330.104L805.115 345.03L802.554 350.73C802.227 351.46 802.202 352.289 802.485 353.037C802.769 353.784 803.337 354.389 804.065 354.719Z" fill="#F2F2F2"/>
<path id="woman_5" d="M773.577 540.443L785.837 540.442L791.67 493.154L773.575 493.155L773.577 540.443Z" fill="#FFB8B8"/>
<path id="woman_6" d="M770.45 536.44L794.594 536.439H794.595C796.616 536.439 798.616 536.837 800.483 537.61C802.35 538.384 804.046 539.517 805.475 540.946C806.904 542.374 808.037 544.071 808.81 545.937C809.584 547.804 809.982 549.805 809.982 551.826V552.326L770.451 552.327L770.45 536.44Z" fill="#2F2E41"/>
<path id="woman_7" d="M805.577 537.443L817.837 537.442L823.67 490.154L805.575 490.155L805.577 537.443Z" fill="#FFB8B8"/>
<path id="woman_8" d="M802.45 533.44L826.594 533.439H826.595C828.616 533.439 830.616 533.837 832.483 534.61C834.35 535.384 836.046 536.517 837.475 537.946C838.904 539.374 840.037 541.071 840.81 542.937C841.584 544.804 841.982 546.805 841.982 548.826V549.326L802.451 549.327L802.45 533.44Z" fill="#2F2E41"/>
<path id="woman_9" d="M718.585 429.478C721.197 437.221 726.152 443.96 732.762 448.764C739.373 453.567 747.314 456.196 755.485 456.288L756.105 456.298C762.435 456.478 769.865 454.438 777.155 451.508C791.555 445.718 805.385 436.448 809.055 433.898L802.835 493.688L800.315 517.928C800.251 518.555 800.32 519.189 800.516 519.788C800.712 520.387 801.031 520.938 801.453 521.406C801.875 521.875 802.391 522.249 802.966 522.506C803.542 522.763 804.165 522.897 804.795 522.898H820.325C821.321 522.899 822.289 522.569 823.078 521.961C823.866 521.353 824.432 520.501 824.685 519.538L850.325 421.888C851.094 418.965 851.156 415.901 850.505 412.95C849.855 409.998 848.511 407.244 846.585 404.915C844.659 402.587 842.205 400.75 839.428 399.557C836.651 398.365 833.63 397.851 830.615 398.058L777.355 401.708L781.075 386.828L733.535 383.668L733.395 383.768C732.255 384.598 731.145 385.468 730.085 386.378C727.435 388.62 725.085 391.194 723.095 394.038C719.534 399.141 717.264 405.031 716.479 411.203C715.693 417.376 716.416 423.646 718.585 429.478Z" fill="#2F2E41"/>
<path id="woman_10" d="M718.585 429.478C721.197 437.221 726.152 443.96 732.762 448.764C739.373 453.567 747.314 456.196 755.485 456.288C763.299 452.334 770.839 447.86 778.055 442.898L777.155 451.508L769.315 526.928C769.251 527.555 769.32 528.189 769.516 528.788C769.712 529.387 770.031 529.938 770.453 530.406C770.875 530.875 771.391 531.249 771.966 531.506C772.542 531.763 773.165 531.897 773.795 531.898H789.325C790.321 531.899 791.289 531.569 792.078 530.961C792.866 530.353 793.432 529.501 793.685 528.538L802.835 493.688L819.325 430.888C820.094 427.965 820.156 424.901 819.505 421.95C818.855 418.998 817.511 416.244 815.585 413.915C813.659 411.587 811.205 409.75 808.428 408.557C805.651 407.365 802.63 406.851 799.615 407.058L746.355 410.708L750.075 395.828L723.095 394.038C719.534 399.141 717.264 405.031 716.479 411.203C715.693 417.376 716.416 423.646 718.585 429.478Z" fill="#2F2E41"/>
<path id="woman_11" d="M730.017 389.828L729.659 389.785L721.364 349C721.293 348.646 714.512 313.467 735.301 295.075L735.663 292.558C735.756 291.914 735.987 291.298 736.341 290.752C736.695 290.206 737.163 289.743 737.713 289.395C738.263 289.047 738.882 288.823 739.527 288.738C740.172 288.652 740.828 288.708 741.45 288.901L761.035 294.975C762.143 295.317 763.077 296.074 763.64 297.089C764.202 298.103 764.351 299.296 764.054 300.417L762.15 307.659C764.79 310.759 795.864 348.171 785.04 376.994L780.192 395.946L730.017 389.828Z" fill="#369F93"/>
<path id="woman_12" d="M811.338 357.997C810.869 358.292 810.425 358.623 810.008 358.987L762.111 346.129L758.98 334.495L740.804 336.926L744.346 358.061C744.632 359.768 745.465 361.336 746.718 362.531C747.972 363.725 749.578 364.48 751.298 364.683L807.33 371.302C808.22 373.239 809.678 374.859 811.512 375.947C813.345 377.034 815.466 377.538 817.593 377.391C819.719 377.244 821.751 376.453 823.417 375.123C825.082 373.793 826.304 371.988 826.919 369.947C827.534 367.906 827.513 365.726 826.858 363.697C826.204 361.668 824.948 359.887 823.256 358.59C821.565 357.292 819.518 356.541 817.389 356.435C815.26 356.329 813.149 356.874 811.338 357.997H811.338Z" fill="#FFB8B8"/>
<path id="woman_13" d="M760.266 345.944L737.724 348.847C737.083 348.93 736.431 348.873 735.814 348.681C735.196 348.489 734.627 348.166 734.146 347.735C733.664 347.303 733.281 346.773 733.023 346.18C732.765 345.587 732.638 344.945 732.65 344.299L733.08 321.644C732.676 318.36 733.59 315.05 735.623 312.44C737.656 309.829 740.641 308.131 743.924 307.718C747.207 307.305 750.519 308.21 753.135 310.236C755.751 312.262 757.457 315.242 757.879 318.524L764.021 340.258C764.197 340.88 764.237 341.533 764.137 342.172C764.038 342.811 763.802 343.421 763.445 343.961C763.089 344.5 762.621 344.957 762.072 345.299C761.523 345.641 760.907 345.861 760.266 345.944Z" fill="#369F93"/>
<path id="woman_14" d="M753.921 283.365C767.485 283.365 778.482 272.368 778.482 258.804C778.482 245.239 767.485 234.243 753.921 234.243C740.356 234.243 729.36 245.239 729.36 258.804C729.36 272.368 740.356 283.365 753.921 283.365Z" fill="#FFB8B8"/>
<path id="woman_15" d="M752.628 260.855L749.553 255.255C743.729 278.987 754.017 298.628 754.017 298.628L714.085 280.027L714.465 273.428L710.514 277.912L704.836 274.783L704.086 270.502L699.801 271.564L715.444 243.176C730.627 216.163 752.699 226.477 752.699 226.477C787.815 224.807 783.526 259.452 783.526 259.452L752.628 260.855Z" fill="#2F2E41"/>
</g>
</g>
<defs>
<clipPath id="clip0">
<rect width="982.487" height="763.014" fill="white"/>
</clipPath>
</defs>
</svg>
