<svg width="1051" height="705" viewBox="0 0 1051 705" fill="none" xmlns="http://www.w3.org/2000/svg">
<g clip-path="url(#clip0_1:2)">
<path d="M1050.86 374.353C1050.86 516.823 960.562 638.213 834.082 684.403C814.841 691.443 794.98 696.656 774.762 699.973C719.14 709.095 662.111 703.916 609.042 684.923C481.762 639.113 390.802 517.313 390.862 374.283C390.862 192.103 538.612 44.3528 720.862 44.3528C789.74 44.2526 856.908 65.8011 912.872 105.953C996.422 165.813 1050.86 263.723 1050.86 374.353Z" fill="#16181D"/>
<path d="M834.082 684.403C814.841 691.443 794.98 696.656 774.762 699.973C719.14 709.095 662.111 703.916 609.042 684.923L624.282 623.773L625.202 620.103L656.302 620.223L812.542 620.783L814.542 626.693L834.082 684.403Z" fill="#2F2E41"/>
<path d="M0.5 323.855V0.5H286.151V323.855H0.5Z" fill="#1E2127" stroke="#119180"/>
<g filter="url(#filter0_b_1:2)">
<path d="M281.039 6.86201H5.11099V317.494H281.039V6.86201Z" fill="#1E2127"/>
<path d="M281.539 6.86201V6.36201H281.039H5.11099H4.61099V6.86201V317.494V317.994H5.11099H281.039H281.539V317.494V6.86201Z" stroke="#F13577"/>
</g>
<path d="M143.326 306.449C151.868 306.449 158.793 299.524 158.793 290.982C158.793 282.44 151.868 275.515 143.326 275.515C134.784 275.515 127.859 282.44 127.859 290.982C127.859 299.524 134.784 306.449 143.326 306.449Z" fill="#E6E6E6"/>
<path d="M140.713 116.819H51.876V125.907H140.713V116.819Z" fill="#E6E6E6"/>
<path d="M172.794 171.456H51.876V180.544H172.794V171.456Z" fill="#FC6A00"/>
<path d="M238.599 198.136H51.876V207.224H238.599V198.136Z" fill="#BE185D"/>
<path d="M205.992 223.545H53.817V232.633H205.992V223.545Z" fill="#E6E6E6"/>
<path d="M407.609 527.791C408.699 528.91 409.699 530.114 410.6 531.391L550.709 527.963L567.054 498.095L615.354 516.871L591.554 572.558C589.631 577.056 586.302 580.81 582.064 583.255C577.827 585.7 572.911 586.705 568.054 586.119L409.754 566.996C406.02 571.723 400.935 575.201 395.176 576.968C389.417 578.735 383.256 578.707 377.514 576.887C371.771 575.067 366.719 571.542 363.028 566.78C359.338 562.019 357.185 556.247 356.855 550.232C356.525 544.217 358.034 538.244 361.182 533.108C364.33 527.971 368.966 523.915 374.476 521.478C379.985 519.041 386.105 518.34 392.023 519.466C397.941 520.593 403.375 523.494 407.604 527.785L407.609 527.791Z" fill="#FBBEBE"/>
<path d="M596.189 357.241L661.758 335.752L681.016 309.341L774.732 314.887L788.491 345.707L838.463 369.32L830.783 511.944L817.645 645.421C750.087 610.438 624.006 637.109 622.902 637.543L596.189 357.241Z" fill="#34D397"/>
<path d="M610.206 550.29L543.512 523.606L543.796 522.419C544.082 521.219 572.468 402.602 576.237 383.54C580.163 363.681 594.508 358.19 595.117 357.967L595.562 357.803L621.956 365.837L633.548 456.918L610.206 550.29Z" fill="#6EE7B7"/>
<path d="M754.211 639.554C755.774 639.516 757.338 639.603 758.888 639.812L851.635 534.74L840.847 502.454L887.455 479.802L912.11 535.115C914.102 539.583 914.591 544.577 913.503 549.347C912.415 554.117 909.809 558.405 906.076 561.568L784.426 664.641C785.353 670.593 784.446 676.686 781.825 682.11C779.204 687.534 774.995 692.032 769.756 695.005C764.516 697.978 758.496 699.286 752.496 698.754C746.495 698.222 740.799 695.876 736.165 692.028C731.53 688.18 728.177 683.012 726.551 677.212C724.925 671.412 725.103 665.254 727.062 659.557C729.021 653.861 732.668 648.896 737.518 645.323C742.367 641.749 748.19 639.737 754.211 639.554Z" fill="#FBBEBE"/>
<path d="M844.232 544.968L805.543 453.962L820.633 390.571L836.892 370.03C838.083 369.52 839.366 369.264 840.661 369.276C841.956 369.288 843.235 369.568 844.416 370.1C850.416 372.513 855.516 379.91 859.593 392.084L895.852 495.363L844.232 544.968Z" fill="#6EE7B7"/>
<path d="M716.548 286.37C753.775 286.37 783.953 256.192 783.953 218.965C783.953 181.738 753.775 151.56 716.548 151.56C679.321 151.56 649.143 181.738 649.143 218.965C649.143 256.192 679.321 286.37 716.548 286.37Z" fill="#FBBEBE"/>
<path d="M732.145 105.269C721.267 102.4 708.734 101.456 700.089 107.84C695.858 110.964 693.06 115.506 689.305 119.138C678.942 129.159 662.838 131.126 649.384 137.06C631.849 144.794 617.924 161.511 618.809 180.29C619.152 187.562 621.613 194.67 622.733 201.903C625.859 222.082 618.472 241.803 611.202 260.54L596.908 297.38C594.726 303.005 592.481 308.737 588.526 313.343C584.572 317.949 578.543 321.32 572.179 320.702C577.621 325.282 584.43 328.058 591.524 328.589C598.618 329.12 605.59 327.377 611.331 323.635C610.238 328.562 607.884 333.103 604.475 336.861C601.066 340.619 596.707 343.479 591.779 345.19C608.608 348.034 625.833 342.737 639.169 333.27C652.504 323.802 662.308 310.477 670.003 296.355C674.074 288.886 677.671 280.915 678.065 272.368C678.342 266.348 677.016 260.314 675.862 254.329C672.885 238.901 671.011 223.016 674.17 207.88C677.328 192.743 686.161 178.31 700.369 171.274C705.834 168.545 711.929 167.058 718.198 166.923C724.467 166.789 730.75 168.01 736.578 170.497C742.363 173.088 747.42 177.027 751.264 181.937C755.109 186.846 757.612 192.562 758.535 198.536C759.176 203.431 760.197 210.128 765.331 210.579C766.313 210.585 767.293 210.539 768.265 210.441C774.24 210.329 778.286 216.965 778.583 222.685C779.519 240.727 759.758 252.003 751.718 267.974C744.238 282.83 747.494 301.018 753.738 316.953C764.557 344.397 783.42 368.563 807.998 386.466C804.378 383.898 801.637 380.351 800.154 376.317C811.102 381.239 822.586 384.872 834.344 387.135C825.887 373.947 817.375 360.654 811.684 346.26C805.994 331.867 803.246 316.127 806.698 301.474C811.33 281.81 826.791 264.748 825.266 244.39C823.871 225.778 808.346 209.403 807.796 190.787C807.238 171.877 808.309 156.08 792.445 141.519C775.13 125.627 755.332 111.385 732.145 105.269Z" fill="#FFCB65"/>
<path d="M143.077 25.2621C136.572 25.2618 130.212 27.1904 124.803 30.8043C119.394 34.4181 115.178 39.5547 112.688 45.5646C110.199 51.5745 109.547 58.1878 110.816 64.568C112.085 70.9483 115.217 76.8091 119.816 81.4092C124.416 86.0093 130.277 89.1422 136.657 90.4116C143.037 91.681 149.65 91.03 155.66 88.5409C161.67 86.0518 166.808 81.8363 170.422 76.4276C174.036 71.0189 175.966 64.6599 175.966 58.1547V58.153C175.966 53.8337 175.115 49.5567 173.462 45.5662C171.809 41.5757 169.387 37.9498 166.332 34.8956C163.278 31.8414 159.652 29.4187 155.662 27.7657C151.671 26.1128 147.394 25.2621 143.075 25.2621H143.077ZM143.077 35.1285C145.028 35.1285 146.936 35.7071 148.558 36.7912C150.181 37.8754 151.445 39.4163 152.192 41.2191C152.939 43.022 153.134 45.0058 152.754 46.9197C152.373 48.8336 151.433 50.5916 150.053 51.9714C148.674 53.3513 146.916 54.291 145.002 54.6717C143.088 55.0524 141.104 54.857 139.301 54.1103C137.498 53.3635 135.957 52.0989 134.873 50.4764C133.789 48.8539 133.21 46.9463 133.21 44.9949C133.21 42.3782 134.25 39.8686 136.1 38.0183C137.95 36.168 140.46 35.1285 143.077 35.1285ZM143.077 82.6297C139.179 82.6119 135.344 81.6434 131.905 79.8081C128.466 77.9728 125.527 75.3263 123.342 72.098C123.501 65.5198 136.499 61.8989 143.077 61.8989C149.655 61.8989 162.653 65.5198 162.811 72.098C160.624 75.3239 157.684 77.9686 154.246 79.8036C150.808 81.6386 146.974 82.6086 143.077 82.6297Z" fill="#BE185D"/>
<path d="M143.459 296.911C157.009 272.08 189.469 256.355 216.022 270.529C227.974 276.908 237.475 288.192 240.491 301.529C243.991 317.022 236.616 331.795 229.003 344.811C224.871 351.876 220.343 358.797 216.923 366.249C213.382 373.966 210.851 382.885 213.517 391.28C215.917 398.843 221.935 404.344 228.525 408.387C235.798 412.68 243.535 416.136 251.586 418.687C268.159 424.199 285.641 426.461 303.071 425.348C311.734 424.759 320.324 423.371 328.731 421.2C337.674 418.92 346.45 416.03 355.408 413.8C370.364 410.085 387.417 408.238 401.599 415.7C415.377 422.952 421.543 438.119 423.45 452.874C426.972 480.12 416.169 508.394 396.664 527.474C387.306 536.628 375.53 544.191 362.704 547.285C351.513 549.985 337.143 549.812 328.237 541.446C318.299 532.109 320.637 517.137 328.53 507.286C338.605 494.717 355.673 491.698 370.904 491.392C388.23 491.044 405.54 493.624 422.856 492.02C431.308 491.362 439.601 489.362 447.424 486.094C454.301 483.069 460.574 478.824 465.939 473.565C476.629 463.179 483.839 449.343 487.424 434.957C491.741 417.657 490.8 399.475 487.449 382.098C485.663 373.138 483.363 364.287 480.561 355.591C479.404 351.921 473.609 353.491 474.775 357.186C485.095 389.91 490.849 427.749 470.91 458.132C462.659 471.017 449.804 480.27 434.967 484.005C417.71 488.294 399.602 486.174 382.058 485.536C365.376 484.929 347.058 485.584 332.758 495.3C321.027 503.269 312.822 518.427 316.368 532.737C319.787 546.537 333.049 553.537 346.313 554.615C360.23 555.749 373.925 551.078 385.613 543.774C409.926 528.581 426.092 501.861 429.475 473.532C431.238 458.771 429.444 442.871 422.75 429.473C419.223 422.22 413.733 416.102 406.903 411.812C400.093 407.637 392.227 405.582 384.327 404.855C366.379 403.202 349.135 409.364 332.109 414.078C323.412 416.601 314.496 418.303 305.481 419.161C296.731 419.886 287.931 419.743 279.209 418.733C270.555 417.712 262.026 415.819 253.752 413.083C245.644 410.577 237.882 407.067 230.644 402.636C224.259 398.553 218.737 392.705 218.423 384.736C218.082 376.095 222.439 368.012 226.583 360.727C234.77 346.336 244.883 332.26 247.018 315.413C248.888 300.676 242.958 286.151 232.718 275.64C227.586 270.305 221.408 266.087 214.57 263.25C207.732 260.414 200.383 259.019 192.981 259.155C177.788 259.59 163.241 266.197 152.066 276.344C146.524 281.38 141.86 287.304 138.266 293.874C136.415 297.265 141.594 300.296 143.447 296.902L143.459 296.911Z" fill="#FBBEBE"/>
<path d="M18.3955 150.884L16.9795 152.361V157H14.7212V138.25H16.9795V149.59L18.188 148.138L22.3018 143.792H25.0483L19.9092 149.31L25.6465 157H22.9976L18.3955 150.884ZM29.5039 143.792L29.5649 145.257C30.5334 144.118 31.8395 143.548 33.4834 143.548C35.3307 143.548 36.5881 144.256 37.2554 145.672C37.6948 145.037 38.2645 144.524 38.9644 144.134C39.6724 143.743 40.5065 143.548 41.4668 143.548C44.3639 143.548 45.8369 145.082 45.8857 148.15V157H43.6274V148.284C43.6274 147.34 43.4118 146.636 42.9805 146.172C42.5492 145.7 41.8249 145.464 40.8076 145.464C39.9694 145.464 39.2736 145.717 38.7202 146.221C38.1668 146.718 37.8454 147.389 37.7559 148.235V157H35.4854V148.345C35.4854 146.425 34.5454 145.464 32.6655 145.464C31.1844 145.464 30.1712 146.095 29.626 147.356V157H27.3677V143.792H29.5039ZM48.7056 150.274C48.7056 148.98 48.9578 147.816 49.4624 146.783C49.9751 145.749 50.6831 144.952 51.5864 144.39C52.4979 143.829 53.5355 143.548 54.6992 143.548C56.4977 143.548 57.9504 144.17 59.0571 145.416C60.172 146.661 60.7295 148.317 60.7295 150.384V150.542C60.7295 151.828 60.4813 152.984 59.9849 154.009C59.4966 155.027 58.7926 155.82 57.873 156.39C56.9616 156.959 55.9118 157.244 54.7236 157.244C52.9333 157.244 51.4806 156.622 50.3657 155.376C49.259 154.131 48.7056 152.483 48.7056 150.433V150.274ZM50.9761 150.542C50.9761 152.007 51.3138 153.183 51.9893 154.07C52.6729 154.957 53.5843 155.401 54.7236 155.401C55.8711 155.401 56.7826 154.953 57.458 154.058C58.1335 153.155 58.4712 151.893 58.4712 150.274C58.4712 148.825 58.1253 147.653 57.4336 146.758C56.75 145.855 55.8385 145.403 54.6992 145.403C53.5843 145.403 52.6851 145.847 52.0015 146.734C51.3179 147.621 50.9761 148.89 50.9761 150.542ZM71.7158 155.694C70.8369 156.727 69.547 157.244 67.8462 157.244C66.4383 157.244 65.3641 156.837 64.6235 156.023C63.8911 155.201 63.5208 153.989 63.5127 152.386V143.792H65.771V152.325C65.771 154.327 66.5848 155.328 68.2124 155.328C69.9377 155.328 71.0851 154.685 71.6548 153.399V143.792H73.9131V157H71.7646L71.7158 155.694ZM76.8062 150.286C76.8062 148.26 77.2863 146.632 78.2466 145.403C79.2069 144.166 80.4642 143.548 82.0186 143.548C83.5648 143.548 84.7896 144.077 85.6929 145.135V138.25H87.9512V157H85.876L85.7661 155.584C84.8628 156.691 83.6055 157.244 81.9941 157.244C80.4642 157.244 79.215 156.618 78.2466 155.364C77.2863 154.111 76.8062 152.475 76.8062 150.457V150.286ZM79.0645 150.542C79.0645 152.04 79.3737 153.212 79.9922 154.058C80.6107 154.904 81.4652 155.328 82.5557 155.328C83.988 155.328 85.0337 154.685 85.6929 153.399V147.332C85.0174 146.087 83.9798 145.464 82.5801 145.464C81.4733 145.464 80.6107 145.892 79.9922 146.746C79.3737 147.601 79.0645 148.866 79.0645 150.542ZM99.6211 157C99.4909 156.74 99.3851 156.276 99.3037 155.608C98.2539 156.699 97.0007 157.244 95.5439 157.244C94.2419 157.244 93.1717 156.878 92.3335 156.146C91.5034 155.405 91.0884 154.469 91.0884 153.338C91.0884 151.963 91.6092 150.896 92.6509 150.14C93.7007 149.375 95.1737 148.992 97.0698 148.992H99.2671V147.955C99.2671 147.165 99.0311 146.539 98.5591 146.075C98.0871 145.603 97.3913 145.367 96.4717 145.367C95.666 145.367 94.9906 145.57 94.4453 145.977C93.9001 146.384 93.6274 146.876 93.6274 147.454H91.3569C91.3569 146.795 91.5889 146.16 92.0527 145.55C92.5247 144.931 93.1595 144.443 93.957 144.085C94.7627 143.727 95.6457 143.548 96.606 143.548C98.1278 143.548 99.32 143.93 100.183 144.695C101.045 145.452 101.493 146.498 101.525 147.833V153.912C101.525 155.124 101.68 156.089 101.989 156.805V157H99.6211ZM95.8735 155.279C96.5815 155.279 97.2529 155.096 97.8877 154.729C98.5225 154.363 98.9823 153.887 99.2671 153.301V150.591H97.4971C94.7301 150.591 93.3467 151.401 93.3467 153.021C93.3467 153.729 93.5827 154.282 94.0547 154.681C94.5267 155.079 95.133 155.279 95.8735 155.279ZM111.45 145.818C111.108 145.761 110.738 145.733 110.339 145.733C108.858 145.733 107.853 146.364 107.324 147.625V157H105.065V143.792H107.263L107.299 145.318C108.04 144.138 109.09 143.548 110.449 143.548C110.888 143.548 111.222 143.605 111.45 143.719V145.818ZM119.921 145.818C119.58 145.761 119.209 145.733 118.811 145.733C117.329 145.733 116.324 146.364 115.795 147.625V157H113.537V143.792H115.734L115.771 145.318C116.512 144.138 117.561 143.548 118.92 143.548C119.36 143.548 119.694 143.605 119.921 143.719V145.818ZM124.462 157H122.204V143.792H124.462V157ZM122.021 140.289C122.021 139.922 122.131 139.613 122.351 139.361C122.578 139.109 122.912 138.982 123.352 138.982C123.791 138.982 124.125 139.109 124.353 139.361C124.58 139.613 124.694 139.922 124.694 140.289C124.694 140.655 124.58 140.96 124.353 141.204C124.125 141.448 123.791 141.57 123.352 141.57C122.912 141.57 122.578 141.448 122.351 141.204C122.131 140.96 122.021 140.655 122.021 140.289ZM129.199 157V145.538H127.111V143.792H129.199V142.437C129.199 141.021 129.577 139.926 130.334 139.153C131.091 138.38 132.161 137.994 133.544 137.994C134.065 137.994 134.582 138.063 135.095 138.201L134.973 140.032C134.59 139.959 134.183 139.922 133.752 139.922C133.02 139.922 132.454 140.138 132.055 140.569C131.656 140.993 131.457 141.603 131.457 142.4V143.792H134.277V145.538H131.457V157H129.199ZM156.286 150.872C156.188 152.841 155.7 154.396 154.821 155.535C153.942 156.674 152.766 157.244 151.293 157.244C149.772 157.244 148.795 156.561 148.364 155.193C147.924 155.885 147.42 156.402 146.85 156.744C146.289 157.077 145.707 157.244 145.104 157.244C143.949 157.244 143.074 156.772 142.48 155.828C141.886 154.884 141.666 153.578 141.821 151.91C141.943 150.567 142.248 149.371 142.736 148.321C143.233 147.263 143.868 146.433 144.641 145.831C145.422 145.228 146.24 144.927 147.094 144.927C147.753 144.927 148.343 145.017 148.864 145.196C149.385 145.367 149.971 145.708 150.622 146.221L149.987 152.984C149.833 154.864 150.354 155.804 151.55 155.804C152.469 155.804 153.214 155.348 153.784 154.437C154.353 153.525 154.663 152.337 154.711 150.872C154.866 147.706 154.276 145.293 152.941 143.633C151.615 141.973 149.593 141.143 146.875 141.143C145.239 141.143 143.786 141.55 142.517 142.364C141.247 143.169 140.246 144.337 139.514 145.867C138.781 147.397 138.37 149.163 138.281 151.165C138.183 153.183 138.427 154.937 139.013 156.426C139.599 157.907 140.49 159.039 141.687 159.82C142.891 160.609 144.344 161.004 146.044 161.004C146.777 161.004 147.509 160.914 148.242 160.735C148.982 160.556 149.597 160.324 150.085 160.04L150.537 161.443C150.032 161.761 149.361 162.021 148.522 162.225C147.692 162.428 146.85 162.53 145.996 162.53C143.961 162.53 142.211 162.07 140.747 161.15C139.282 160.239 138.183 158.921 137.451 157.195C136.726 155.478 136.413 153.468 136.511 151.165C136.608 148.927 137.109 146.917 138.012 145.135C138.916 143.344 140.14 141.965 141.687 140.997C143.233 140.02 144.978 139.532 146.923 139.532C148.95 139.532 150.687 139.987 152.136 140.899C153.584 141.81 154.663 143.125 155.371 144.842C156.079 146.559 156.384 148.569 156.286 150.872ZM143.762 151.91C143.648 153.065 143.754 153.952 144.079 154.571C144.413 155.189 144.938 155.499 145.654 155.499C146.142 155.499 146.61 155.291 147.058 154.876C147.513 154.461 147.888 153.867 148.181 153.094L148.193 152.984L148.754 146.844C148.299 146.608 147.81 146.49 147.29 146.49C146.337 146.49 145.548 146.974 144.921 147.942C144.303 148.911 143.916 150.233 143.762 151.91ZM158.703 150.286C158.703 148.227 159.179 146.591 160.131 145.379C161.083 144.158 162.345 143.548 163.916 143.548C165.527 143.548 166.784 144.118 167.688 145.257L167.797 143.792H169.86V156.683C169.86 158.392 169.352 159.738 168.334 160.723C167.325 161.708 165.966 162.2 164.257 162.2C163.305 162.2 162.373 161.997 161.462 161.59C160.55 161.183 159.855 160.625 159.375 159.917L160.546 158.562C161.515 159.759 162.699 160.357 164.099 160.357C165.197 160.357 166.052 160.048 166.662 159.429C167.281 158.811 167.59 157.94 167.59 156.817V155.682C166.687 156.723 165.454 157.244 163.891 157.244C162.345 157.244 161.092 156.622 160.131 155.376C159.179 154.131 158.703 152.435 158.703 150.286ZM160.974 150.542C160.974 152.032 161.279 153.204 161.889 154.058C162.5 154.904 163.354 155.328 164.453 155.328C165.877 155.328 166.923 154.681 167.59 153.387V147.356C166.898 146.095 165.861 145.464 164.477 145.464C163.378 145.464 162.52 145.892 161.901 146.746C161.283 147.601 160.974 148.866 160.974 150.542ZM175.402 143.792L175.463 145.257C176.432 144.118 177.738 143.548 179.382 143.548C181.229 143.548 182.486 144.256 183.154 145.672C183.593 145.037 184.163 144.524 184.863 144.134C185.571 143.743 186.405 143.548 187.365 143.548C190.262 143.548 191.735 145.082 191.784 148.15V157H189.526V148.284C189.526 147.34 189.31 146.636 188.879 146.172C188.448 145.7 187.723 145.464 186.706 145.464C185.868 145.464 185.172 145.717 184.619 146.221C184.065 146.718 183.744 147.389 183.654 148.235V157H181.384V148.345C181.384 146.425 180.444 145.464 178.564 145.464C177.083 145.464 176.07 146.095 175.524 147.356V157H173.266V143.792H175.402ZM203.356 157C203.226 156.74 203.12 156.276 203.039 155.608C201.989 156.699 200.736 157.244 199.279 157.244C197.977 157.244 196.907 156.878 196.069 156.146C195.239 155.405 194.824 154.469 194.824 153.338C194.824 151.963 195.345 150.896 196.386 150.14C197.436 149.375 198.909 148.992 200.805 148.992H203.002V147.955C203.002 147.165 202.766 146.539 202.294 146.075C201.822 145.603 201.127 145.367 200.207 145.367C199.401 145.367 198.726 145.57 198.181 145.977C197.635 146.384 197.363 146.876 197.363 147.454H195.092C195.092 146.795 195.324 146.16 195.788 145.55C196.26 144.931 196.895 144.443 197.692 144.085C198.498 143.727 199.381 143.548 200.341 143.548C201.863 143.548 203.055 143.93 203.918 144.695C204.781 145.452 205.228 146.498 205.261 147.833V153.912C205.261 155.124 205.415 156.089 205.725 156.805V157H203.356ZM199.609 155.279C200.317 155.279 200.988 155.096 201.623 154.729C202.258 154.363 202.718 153.887 203.002 153.301V150.591H201.232C198.465 150.591 197.082 151.401 197.082 153.021C197.082 153.729 197.318 154.282 197.79 154.681C198.262 155.079 198.868 155.279 199.609 155.279ZM211.254 157H208.996V143.792H211.254V157ZM208.813 140.289C208.813 139.922 208.923 139.613 209.143 139.361C209.37 139.109 209.704 138.982 210.144 138.982C210.583 138.982 210.917 139.109 211.145 139.361C211.372 139.613 211.486 139.922 211.486 140.289C211.486 140.655 211.372 140.96 211.145 141.204C210.917 141.448 210.583 141.57 210.144 141.57C209.704 141.57 209.37 141.448 209.143 141.204C208.923 140.96 208.813 140.655 208.813 140.289ZM217.333 157H215.075V138.25H217.333V157ZM221.008 155.816C221.008 155.425 221.122 155.1 221.35 154.839C221.586 154.579 221.936 154.449 222.399 154.449C222.863 154.449 223.213 154.579 223.449 154.839C223.693 155.1 223.815 155.425 223.815 155.816C223.815 156.19 223.693 156.504 223.449 156.756C223.213 157.008 222.863 157.134 222.399 157.134C221.936 157.134 221.586 157.008 221.35 156.756C221.122 156.504 221.008 156.19 221.008 155.816ZM232.849 155.401C233.654 155.401 234.358 155.157 234.96 154.668C235.563 154.18 235.896 153.57 235.961 152.837H238.098C238.057 153.594 237.797 154.314 237.316 154.998C236.836 155.682 236.193 156.227 235.388 156.634C234.59 157.041 233.744 157.244 232.849 157.244C231.05 157.244 229.618 156.646 228.552 155.45C227.494 154.245 226.965 152.601 226.965 150.518V150.14C226.965 148.854 227.201 147.71 227.673 146.709C228.145 145.708 228.82 144.931 229.699 144.378C230.586 143.825 231.632 143.548 232.836 143.548C234.318 143.548 235.546 143.991 236.523 144.878C237.508 145.765 238.033 146.917 238.098 148.333H235.961C235.896 147.479 235.571 146.779 234.985 146.233C234.407 145.68 233.691 145.403 232.836 145.403C231.689 145.403 230.798 145.818 230.163 146.648C229.536 147.47 229.223 148.663 229.223 150.225V150.652C229.223 152.174 229.536 153.346 230.163 154.168C230.79 154.99 231.685 155.401 232.849 155.401ZM240.039 150.274C240.039 148.98 240.291 147.816 240.795 146.783C241.308 145.749 242.016 144.952 242.919 144.39C243.831 143.829 244.868 143.548 246.032 143.548C247.831 143.548 249.283 144.17 250.39 145.416C251.505 146.661 252.062 148.317 252.062 150.384V150.542C252.062 151.828 251.814 152.984 251.318 154.009C250.83 155.027 250.126 155.82 249.206 156.39C248.295 156.959 247.245 157.244 246.057 157.244C244.266 157.244 242.814 156.622 241.699 155.376C240.592 154.131 240.039 152.483 240.039 150.433V150.274ZM242.309 150.542C242.309 152.007 242.647 153.183 243.322 154.07C244.006 154.957 244.917 155.401 246.057 155.401C247.204 155.401 248.116 154.953 248.791 154.058C249.466 153.155 249.804 151.893 249.804 150.274C249.804 148.825 249.458 147.653 248.767 146.758C248.083 145.855 247.172 145.403 246.032 145.403C244.917 145.403 244.018 145.847 243.334 146.734C242.651 147.621 242.309 148.89 242.309 150.542ZM257.019 143.792L257.08 145.257C258.048 144.118 259.354 143.548 260.998 143.548C262.845 143.548 264.103 144.256 264.77 145.672C265.209 145.037 265.779 144.524 266.479 144.134C267.187 143.743 268.021 143.548 268.981 143.548C271.879 143.548 273.352 145.082 273.4 148.15V157H271.142V148.284C271.142 147.34 270.926 146.636 270.495 146.172C270.064 145.7 269.34 145.464 268.322 145.464C267.484 145.464 266.788 145.717 266.235 146.221C265.681 146.718 265.36 147.389 265.271 148.235V157H263V148.345C263 146.425 262.06 145.464 260.18 145.464C258.699 145.464 257.686 146.095 257.141 147.356V157H254.882V143.792H257.019Z" fill="#E6E6E6"/>
<path d="M64.3394 244.214V246.131H63.9243C62.1665 246.163 60.7668 246.684 59.7251 247.693C58.6834 248.702 58.0812 250.123 57.9185 251.954C58.8543 250.879 60.132 250.342 61.7515 250.342C63.2977 250.342 64.5306 250.888 65.4502 251.978C66.3779 253.069 66.8418 254.476 66.8418 256.202C66.8418 258.033 66.3413 259.498 65.3403 260.596C64.3475 261.695 63.0129 262.244 61.3364 262.244C59.6356 262.244 58.2562 261.593 57.1982 260.291C56.1403 258.981 55.6113 257.296 55.6113 255.237V254.371C55.6113 251.099 56.3071 248.601 57.6987 246.875C59.0985 245.142 61.1777 244.255 63.9365 244.214H64.3394ZM61.373 252.222C60.5999 252.222 59.8879 252.454 59.2368 252.918C58.5858 253.382 58.1341 253.964 57.8818 254.664V255.494C57.8818 256.958 58.2114 258.139 58.8706 259.034C59.5298 259.929 60.3517 260.376 61.3364 260.376C62.3537 260.376 63.1512 260.002 63.729 259.253C64.3149 258.505 64.6079 257.524 64.6079 256.312C64.6079 255.091 64.3109 254.106 63.7168 253.357C63.1309 252.601 62.3496 252.222 61.373 252.222ZM80.6602 254.419C80.6602 257.064 80.2085 259.03 79.3052 260.315C78.4019 261.601 76.9899 262.244 75.0693 262.244C73.1732 262.244 71.7694 261.618 70.8579 260.364C69.9465 259.103 69.4744 257.223 69.4419 254.725V251.709C69.4419 249.097 69.8936 247.156 70.7969 245.887C71.7002 244.617 73.1162 243.982 75.0449 243.982C76.9574 243.982 78.3652 244.597 79.2686 245.826C80.1719 247.046 80.6357 248.934 80.6602 251.49V254.419ZM78.4019 251.331C78.4019 249.419 78.1333 248.027 77.5962 247.156C77.0591 246.277 76.2087 245.838 75.0449 245.838C73.8893 245.838 73.047 246.273 72.5181 247.144C71.9891 248.015 71.7165 249.354 71.7002 251.16V254.773C71.7002 256.694 71.9769 258.114 72.5303 259.034C73.0918 259.945 73.9382 260.401 75.0693 260.401C76.1842 260.401 77.0103 259.97 77.5474 259.107C78.0926 258.244 78.3774 256.885 78.4019 255.03V251.331ZM93.0869 256.031H95.5527V257.874H93.0869V262H90.8164V257.874H82.7231V256.543L90.6821 244.227H93.0869V256.031ZM85.2866 256.031H90.8164V247.315L90.5479 247.803L85.2866 256.031ZM114.938 254.419C114.938 257.064 114.486 259.03 113.583 260.315C112.679 261.601 111.267 262.244 109.347 262.244C107.451 262.244 106.047 261.618 105.135 260.364C104.224 259.103 103.752 257.223 103.719 254.725V251.709C103.719 249.097 104.171 247.156 105.074 245.887C105.978 244.617 107.394 243.982 109.322 243.982C111.235 243.982 112.643 244.597 113.546 245.826C114.449 247.046 114.913 248.934 114.938 251.49V254.419ZM112.679 251.331C112.679 249.419 112.411 248.027 111.874 247.156C111.336 246.277 110.486 245.838 109.322 245.838C108.167 245.838 107.324 246.273 106.795 247.144C106.266 248.015 105.994 249.354 105.978 251.16V254.773C105.978 256.694 106.254 258.114 106.808 259.034C107.369 259.945 108.215 260.401 109.347 260.401C110.462 260.401 111.288 259.97 111.825 259.107C112.37 258.244 112.655 256.885 112.679 255.03V251.331ZM129.476 262H117.831V260.376L123.983 253.541C124.894 252.507 125.521 251.669 125.863 251.026C126.213 250.375 126.388 249.703 126.388 249.012C126.388 248.084 126.107 247.323 125.545 246.729C124.984 246.135 124.235 245.838 123.299 245.838C122.176 245.838 121.301 246.159 120.675 246.802C120.056 247.437 119.747 248.324 119.747 249.463H117.489C117.489 247.828 118.014 246.505 119.063 245.496C120.121 244.487 121.533 243.982 123.299 243.982C124.951 243.982 126.257 244.418 127.218 245.289C128.178 246.151 128.658 247.303 128.658 248.743C128.658 250.493 127.543 252.576 125.313 254.993L120.553 260.157H129.476V262ZM141.402 256.031H143.868V257.874H141.402V262H139.132V257.874H131.039V256.543L138.998 244.227H141.402V256.031ZM133.602 256.031H139.132V247.315L138.863 247.803L133.602 256.031ZM153.146 253.089L154.049 244.227H163.155V246.314H155.965L155.428 251.16C156.299 250.647 157.288 250.391 158.395 250.391C160.014 250.391 161.3 250.928 162.252 252.002C163.204 253.069 163.68 254.513 163.68 256.336C163.68 258.167 163.184 259.611 162.191 260.669C161.206 261.719 159.827 262.244 158.053 262.244C156.482 262.244 155.2 261.809 154.208 260.938C153.215 260.067 152.649 258.863 152.511 257.325H154.647C154.785 258.342 155.147 259.111 155.733 259.632C156.319 260.145 157.092 260.401 158.053 260.401C159.103 260.401 159.924 260.043 160.519 259.327C161.121 258.611 161.422 257.622 161.422 256.36C161.422 255.172 161.096 254.22 160.445 253.504C159.802 252.78 158.944 252.417 157.87 252.417C156.885 252.417 156.112 252.633 155.55 253.064L154.952 253.553L153.146 253.089ZM173.568 262H171.297V246.949L166.744 248.621V246.57L173.214 244.141H173.568V262ZM183.468 252.015H185.165C186.231 251.998 187.069 251.718 187.679 251.172C188.29 250.627 188.595 249.891 188.595 248.963C188.595 246.88 187.557 245.838 185.482 245.838C184.505 245.838 183.724 246.119 183.138 246.68C182.56 247.234 182.271 247.97 182.271 248.89H180.013C180.013 247.482 180.526 246.314 181.551 245.386C182.585 244.45 183.895 243.982 185.482 243.982C187.158 243.982 188.473 244.426 189.425 245.313C190.377 246.2 190.853 247.433 190.853 249.012C190.853 249.785 190.601 250.534 190.096 251.258C189.6 251.982 188.92 252.523 188.058 252.881C189.034 253.191 189.787 253.703 190.316 254.419C190.853 255.136 191.122 256.01 191.122 257.044C191.122 258.639 190.601 259.904 189.559 260.84C188.517 261.776 187.162 262.244 185.494 262.244C183.826 262.244 182.467 261.792 181.417 260.889C180.375 259.986 179.854 258.794 179.854 257.312H182.125C182.125 258.248 182.43 258.997 183.041 259.559C183.651 260.12 184.469 260.401 185.494 260.401C186.585 260.401 187.419 260.116 187.997 259.546C188.574 258.977 188.863 258.159 188.863 257.093C188.863 256.059 188.546 255.266 187.911 254.712C187.276 254.159 186.361 253.874 185.165 253.858H183.468V252.015Z" fill="#E6E6E6"/>
<path d="M37.2866 260.666L31.8179 258.322C31.5843 258.222 31.3246 258.201 31.078 258.262C30.8315 258.323 30.6113 258.462 30.4507 258.659L28.0288 261.618C24.2279 259.826 21.169 256.767 19.377 252.966L22.3359 250.544C22.533 250.384 22.6726 250.164 22.7333 249.917C22.7941 249.67 22.7729 249.41 22.6729 249.177L20.3291 243.708C20.2193 243.456 20.0251 243.251 19.78 243.127C19.5348 243.003 19.2542 242.968 18.9863 243.029L13.9082 244.201C13.65 244.261 13.4196 244.406 13.2547 244.614C13.0897 244.821 12.9999 245.078 13 245.343C13 257.868 23.1514 268 35.6562 268C35.9213 268 36.1787 267.91 36.3862 267.745C36.5937 267.58 36.7392 267.35 36.7988 267.091L37.9707 262.013C38.0312 261.744 37.996 261.462 37.8711 261.216C37.7463 260.97 37.5396 260.776 37.2866 260.666Z" fill="#E6E6E6"/>
</g>
<defs>
<filter id="filter0_b_1:2" x="0.110992" y="1.86201" width="285.928" height="320.632" filterUnits="userSpaceOnUse" color-interpolation-filters="sRGB">
<feFlood flood-opacity="0" result="BackgroundImageFix"/>
<feGaussianBlur in="BackgroundImage" stdDeviation="2"/>
<feComposite in2="SourceAlpha" operator="in" result="effect1_backgroundBlur_1:2"/>
<feBlend mode="normal" in="SourceGraphic" in2="effect1_backgroundBlur_1:2" result="shape"/>
</filter>
<clipPath id="clip0_1:2">
<rect width="1050.86" height="704.353" fill="white"/>
</clipPath>
</defs>
</svg>
