<svg width="1948" height="1313" viewBox="0 0 1948 1313" fill="none" xmlns="http://www.w3.org/2000/svg">
<g id="svg-desktop" clip-path="url(#clip0)">
<g id="desk">
<path id="Vector" d="M1190.16 1313C1608.7 1313 1948 1242.07 1948 1154.57C1948 1067.08 1608.7 996.149 1190.16 996.149C771.612 996.149 432.315 1067.08 432.315 1154.57C432.315 1242.07 771.612 1313 1190.16 1313Z" fill="#EA5C3D" fill-opacity="0.86"/>
<path id="Vector_2" d="M1541.49 633.072L1467.59 980.591H1451.6L1449.84 978.024L1444.74 970.581L1508.73 645.942L1518.45 642.124L1541.49 633.072Z" fill="#47465A"/>
<path id="Vector_3" opacity="0.1" d="M1518.45 642.124L1449.84 978.024L1444.74 970.581L1508.73 645.942L1518.45 642.124Z" fill="black"/>
<path id="Vector_4" d="M1652.72 1106.44L1633.72 1112.19L1629.11 1113.59L1623.01 1100.72L1518.45 653.036L1529.32 650.748L1552.16 645.942L1652.72 1106.44Z" fill="#47465A"/>
<path id="Vector_5" opacity="0.1" d="M1633.72 1112.19L1629.11 1113.59L1623.01 1100.72L1518.45 653.036L1529.32 650.748L1633.72 1112.19Z" fill="black"/>
<path id="Vector_6" d="M746.881 633.072L730.121 1083.56L710.913 1087.56L709.551 1087.85L704.217 1078.55L714.883 637.361L725.145 635.989L746.881 633.072Z" fill="#47465A"/>
<path id="Vector_7" opacity="0.1" d="M725.145 635.989L710.913 1087.56L709.551 1087.85L704.217 1078.55L714.883 637.361L725.145 635.989Z" fill="black"/>
<path id="Vector_8" d="M846.684 1243.02L826.815 1246.24L824.59 1246.59L818.496 1234.44L721.74 645.942L724.529 645.148L739.263 640.937L846.684 1243.02Z" fill="#47465A"/>
<path id="Vector_9" opacity="0.1" d="M826.815 1246.24L824.59 1246.59L818.496 1234.44L721.74 645.942L724.529 645.148L826.815 1246.24Z" fill="black"/>
<path id="Vector_10" d="M1267.23 596.603L1341.2 685.325C1343.74 688.366 1347.07 690.743 1350.86 692.23C1354.66 693.716 1358.8 694.26 1362.89 693.811L1666.57 660.429C1672.41 659.787 1677.79 657.155 1681.7 653.033C1685.61 648.91 1687.77 643.584 1687.77 638.066V572.291L1267.23 596.603Z" fill="#7A799C"/>
<path id="Vector_11" d="M1516.35 610.905H1536.92V638.769C1536.92 640.672 1536.12 642.496 1534.68 643.842C1533.25 645.187 1531.31 645.943 1529.28 645.943H1524C1521.97 645.943 1520.02 645.187 1518.59 643.842C1517.16 642.496 1516.35 640.672 1516.35 638.769V610.905Z" fill="#47465A"/>
<path id="Vector_12" d="M721.74 653.093L795.718 741.815C798.253 744.856 801.579 747.233 805.376 748.719C809.173 750.205 813.314 750.75 817.4 750.301L1121.08 716.919C1126.92 716.277 1132.31 713.645 1136.22 709.522C1140.12 705.4 1142.28 700.074 1142.28 694.556V628.781L721.74 653.093Z" fill="#7A799C"/>
<path id="Vector_13" d="M970.866 667.395H991.436V695.259C991.436 697.161 990.631 698.986 989.197 700.331C987.764 701.677 985.82 702.433 983.793 702.433H978.509C976.482 702.433 974.538 701.677 973.105 700.331C971.671 698.986 970.866 697.161 970.866 695.259V667.395H970.866Z" fill="#47465A"/>
<path id="Vector_14" d="M806.732 698.027L1710.04 599.269C1712.88 598.959 1715.54 597.798 1717.62 595.959C1719.7 594.12 1721.09 591.701 1721.59 589.06C1722.09 586.42 1721.66 583.699 1720.38 581.301C1719.1 578.903 1717.04 576.957 1714.48 575.75L1552.9 499.477C1521.07 484.454 1485.34 478.275 1449.89 481.667L647.371 558.47C644.501 558.752 641.774 559.786 639.502 561.455C637.23 563.124 635.505 565.36 634.524 567.906C633.542 570.453 633.345 573.207 633.954 575.854C634.564 578.501 635.955 580.933 637.969 582.872L731.423 672.865C741.095 682.179 752.911 689.289 765.966 693.651C779.02 698.012 792.965 699.509 806.732 698.027Z" fill="#47465A"/>
<path id="Vector_15" d="M1809.42 585.885L1799.76 580.872C1799.76 580.872 1789.33 588.079 1780.83 618.441C1772.34 648.803 1796.71 618.77 1796.71 618.77L1807.38 598.034L1809.42 585.885Z" fill="#47465A"/>
<path id="Vector_16" d="M1706.05 864.036C1706.05 864.036 1696.15 907.655 1691.58 919.811C1689.34 925.761 1678.52 931.202 1666.53 935.364C1655.9 939.081 1644.89 941.777 1633.68 943.408C1620.73 944.838 1454.64 920.526 1373.89 904.08C1319.48 893.004 1312.45 880.297 1313.65 873.189C1314.04 871.073 1315.12 869.123 1316.75 867.612C1316.75 867.612 1396.74 816.842 1424.93 792.53C1453.12 768.218 1508.73 787.525 1569.68 797.536C1630.63 807.547 1706.05 864.036 1706.05 864.036Z" fill="#47465A"/>
<path id="Vector_17" d="M1799.76 580.872C1799.76 580.872 1837.09 603.754 1711.39 650.948C1711.39 650.948 1643.06 687.106 1651.96 836.052C1652.38 842.75 1654.55 849.247 1658.28 854.969C1671.25 874.991 1699.04 925.675 1652.72 931.967V943.408C1652.72 943.408 1736.53 904.08 1745.67 870.472C1754.81 836.864 1785.29 650.233 1800.52 633.072C1815.76 615.91 1825.66 588.738 1799.76 580.872Z" fill="#47465A"/>
<path id="Vector_18" opacity="0.1" d="M1666.53 935.364C1655.9 939.081 1644.89 941.777 1633.68 943.408C1620.73 944.838 1454.64 920.526 1373.89 904.08C1319.48 893.004 1312.45 880.297 1313.65 873.189C1349.42 884.666 1465.54 921.091 1507.21 924.102C1556.73 927.677 1651.34 937.616 1658.51 930.859C1661.26 928.256 1664.09 931.002 1666.53 935.364Z" fill="black"/>
<path id="Vector_19" d="M1231.42 1233.01L1303.8 922.671C1303.8 922.671 1316.75 889.779 1346.46 891.209L1373.89 904.08C1373.89 904.08 1328.17 894.069 1318.27 926.962C1308.37 959.855 1245.13 1233.01 1245.13 1233.01H1231.42Z" fill="#47465A"/>
<path id="Vector_20" d="M1405.12 1091.43L1434.07 901.935H1447.02L1417.31 1091.43H1405.12Z" fill="#47465A"/>
<path id="Vector_21" d="M1682.44 1276.63L1655.01 980.591C1655.01 980.591 1655.01 955.564 1668.72 943.408C1682.44 931.252 1726.71 896.576 1726.71 896.576C1726.71 896.576 1738.05 894.069 1747.19 918.381C1756.34 942.693 1819.57 1185.81 1819.57 1185.81L1807.38 1190.82L1728.91 910.515L1674.82 958.425C1674.82 958.425 1664.15 976.301 1669.49 992.747C1674.82 1009.19 1694.63 1276.63 1694.63 1276.63H1682.44Z" fill="#47465A"/>
<path id="Vector_22" d="M1597.87 936.258L1666.44 954.849L1681.68 941.263L1642.06 936.258H1597.87Z" fill="#47465A"/>
<path id="Vector_23" d="M988.318 414.337L999.435 570.861L1242.47 548.694L1232.8 395.686C1232.67 393.636 1232.1 391.632 1231.13 389.791C1230.17 387.95 1228.82 386.309 1227.16 384.965C1225.51 383.621 1223.59 382.601 1221.51 381.965C1219.43 381.329 1217.23 381.09 1215.05 381.262L1003.3 397.979C999.019 398.317 995.048 400.221 992.245 403.281C989.442 406.341 988.032 410.311 988.318 414.337Z" fill="#7A799C"/>
<path id="Vector_24" d="M1323.99 593.742L1081.72 618.549L1072.57 619.485L1001.72 576.582V567.285L1242.47 546.936L1323.99 593.742Z" fill="#7A799C"/>
<path id="Vector_25" opacity="0.1" d="M1081.72 618.549L1072.57 619.485L1001.72 576.582V568.259L1081.72 618.549Z" fill="black"/>
<path id="Vector_26" d="M1004.77 412.832L1013.15 552.269L1226.47 533.678L1218.85 397.816L1004.77 412.832Z" fill="black"/>
<path id="Vector_27" opacity="0.1" d="M1132 590.883L1157.9 607.33L1236.37 600.178L1209.71 584.447L1132 590.883Z" fill="black"/>
<path id="Vector_28" d="M1026.1 570.861L1058.86 593.742L1268.37 575.152L1231.04 552.269L1026.1 570.861Z" fill="#9493B6"/>
<path id="Vector_29" d="M1451.15 426.736C1451.15 426.736 1472.96 482.194 1451.15 492.433C1429.33 502.671 1529.32 492.433 1529.32 492.433L1557.5 471.103C1557.5 471.103 1493.87 454.039 1502.96 414.791C1512.05 375.543 1451.15 426.736 1451.15 426.736Z" fill="#FBBEBE"/>
<path id="Vector_30" opacity="0.1" d="M1451.15 426.736C1451.15 426.736 1472.96 482.194 1451.15 492.433C1429.33 502.671 1529.32 492.433 1529.32 492.433L1557.5 471.103C1557.5 471.103 1493.87 454.039 1502.96 414.791C1512.05 375.543 1451.15 426.736 1451.15 426.736Z" fill="black"/>
<path id="Vector_31" d="M1272.07 983.027C1272.07 983.027 1353.88 1091.38 1340.24 1121.25C1326.61 1151.11 1333.88 1169.88 1306.61 1180.12C1279.34 1190.36 1272.07 1209.13 1295.7 1208.27C1319.34 1207.42 1350.24 1201.45 1354.79 1193.77C1359.33 1186.09 1370.24 1149.4 1385.7 1144.28C1401.15 1139.16 1430.24 1119.54 1409.33 1095.65C1388.42 1071.76 1335.74 983.766 1339.81 974.864C1343.88 965.963 1272.07 983.027 1272.07 983.027Z" fill="#FBBEBE"/>
<path id="Vector_32" d="M1442.97 768.872C1442.97 768.872 1273.88 779.111 1230.25 817.505C1186.62 855.899 1268.43 999.238 1277.52 1000.94C1286.61 1002.65 1357.52 995.825 1354.79 977.055C1352.06 958.284 1303.88 881.495 1303.88 881.495C1303.88 881.495 1366.61 860.165 1401.15 855.046C1435.69 849.927 1473.87 826.037 1473.87 826.037L1442.97 768.872Z" fill="#18174B"/>
<path id="Vector_33" d="M1365.7 744.982C1365.7 744.982 1368.42 839.688 1393.88 843.101C1419.33 846.514 1393.88 770.578 1393.88 770.578L1392.97 741.569L1365.7 744.982Z" fill="#FBBEBE"/>
<path id="Vector_34" d="M1442.96 496.699C1442.96 496.699 1395.69 483.901 1386.6 518.029C1377.51 552.157 1374.79 669.9 1374.79 669.9L1358.42 763.753C1358.42 763.753 1388.42 755.221 1394.79 759.487L1432.97 714.267L1442.96 496.699Z" fill="#FF63C5"/>
<path id="Vector_35" opacity="0.1" d="M1442.96 496.699C1442.96 496.699 1395.69 483.901 1386.6 518.029C1377.51 552.157 1374.79 669.9 1374.79 669.9L1358.42 763.753C1358.42 763.753 1388.42 755.221 1394.79 759.487L1432.97 714.267L1442.96 496.699Z" fill="black"/>
<path id="Vector_36" d="M1507.55 1001.2C1507.55 1001.2 1539.32 1059.82 1558.41 1058.96C1577.5 1058.11 1595.68 1047.02 1604.77 1082C1613.86 1116.98 1602.96 1107.6 1613.86 1128.07C1624.77 1148.55 1626.59 1184.38 1605.68 1192.92C1584.78 1201.45 1565.69 1202.3 1564.78 1192.92C1563.87 1183.53 1582.96 1183.53 1561.14 1150.26C1539.32 1116.98 1492.96 1056.4 1473.87 1050.43C1454.78 1044.46 1507.55 1001.2 1507.55 1001.2Z" fill="#FBBEBE"/>
<path id="Vector_37" d="M1472.96 487.314C1472.96 487.314 1535.69 461.717 1535.69 458.305C1535.69 454.892 1572.05 465.984 1580.23 472.809C1588.41 479.635 1592.96 478.782 1598.41 492.433C1603.86 506.084 1571.14 633.212 1571.14 633.212C1571.14 633.212 1589.32 731.331 1599.32 740.716C1609.32 750.101 1518.42 763.753 1518.42 763.753C1518.42 763.753 1458.42 773.991 1448.42 778.257C1438.42 782.523 1420.24 788.496 1423.88 778.257C1427.51 768.019 1442.97 760.34 1416.6 747.542C1416.6 747.542 1425.69 705.735 1416.6 686.964C1407.51 668.194 1365.7 599.937 1399.33 550.451C1432.97 500.965 1448.42 483.048 1448.42 483.048C1448.42 483.048 1460.24 492.433 1472.96 487.314Z" fill="#FF63C5"/>
<path id="Vector_38" d="M1611.91 742C1611.91 742 1677.36 844.385 1634.64 874.247C1591.91 904.109 1464.65 961.274 1464.65 961.274C1464.65 961.274 1532.82 1004.79 1536.46 1019.29C1540.1 1033.8 1503.74 1073.04 1491.01 1073.9C1478.28 1074.75 1441.01 1034.65 1401.01 1024.41C1361.02 1014.17 1336.47 940.797 1380.11 913.495C1423.74 886.192 1464.65 840.972 1464.65 840.972L1451.93 775.284L1611.91 742Z" fill="#111647"/>
<path id="Vector_39" d="M1492.96 720.239C1492.96 720.239 1422.06 749.756 1400.69 752.488C1379.33 755.221 1314.79 770.578 1350.24 784.23C1385.7 797.881 1439.33 777.404 1439.33 777.404L1514.78 747.542L1492.96 720.239Z" fill="#FBBEBE"/>
<path id="Vector_40" opacity="0.1" d="M1569.3 484.696C1569.3 484.696 1595.48 472.809 1602.76 514.616C1610.03 556.423 1635.48 688.671 1602.76 708.294C1570.03 727.918 1494.58 759.487 1494.58 759.487C1494.58 759.487 1450.04 731.331 1470.95 721.092C1491.85 710.854 1541.85 681.845 1549.12 671.606C1556.4 661.368 1563.74 547.086 1551.02 528.315C1538.29 509.544 1569.3 484.696 1569.3 484.696Z" fill="black"/>
<path id="Vector_41" d="M1567.5 474.516C1567.5 474.516 1603.86 472.809 1611.14 514.616C1618.41 556.423 1643.86 688.671 1611.14 708.294C1578.41 727.918 1502.96 759.487 1502.96 759.487C1502.96 759.487 1458.42 731.331 1479.33 721.092C1500.23 710.854 1550.23 681.845 1557.5 671.606C1564.78 661.368 1552.05 554.717 1539.32 535.946C1526.6 517.176 1567.5 474.516 1567.5 474.516Z" fill="#FF63C5"/>
<path id="vcnvcnxvmxcnvmxnvxmcnvxcm vxcjnnvkjxcmnkjxcnvkcxjnv cxnkcvxnkcvxkjnxcvjnxckjnvxjkn xvnjxvkjnxcnjkxnvxkj xvjnvxnxkjvnxkjvnjkxcnvjkv vxcjkjkvjkxvc" d="M1028.91 429.529L1030.48 424.66H1031.59L1029.32 431H1028.49L1026.19 424.66H1027.3L1028.91 429.529ZM1035.09 430.232C1035.48 430.232 1035.82 430.115 1036.11 429.881C1036.4 429.646 1036.56 429.354 1036.59 429.002H1037.61C1037.59 429.365 1037.47 429.711 1037.24 430.039C1037.01 430.367 1036.7 430.629 1036.31 430.824C1035.93 431.02 1035.52 431.117 1035.09 431.117C1034.23 431.117 1033.54 430.83 1033.03 430.256C1032.52 429.678 1032.27 428.889 1032.27 427.889V427.707C1032.27 427.09 1032.38 426.541 1032.61 426.061C1032.84 425.58 1033.16 425.207 1033.58 424.941C1034.01 424.676 1034.51 424.543 1035.09 424.543C1035.8 424.543 1036.39 424.756 1036.86 425.182C1037.33 425.607 1037.58 426.16 1037.61 426.84H1036.59C1036.56 426.43 1036.4 426.094 1036.12 425.832C1035.84 425.566 1035.5 425.434 1035.09 425.434C1034.54 425.434 1034.11 425.633 1033.8 426.031C1033.5 426.426 1033.35 426.998 1033.35 427.748V427.953C1033.35 428.684 1033.5 429.246 1033.8 429.641C1034.11 430.035 1034.54 430.232 1035.09 430.232ZM1039.86 424.66L1039.89 425.457C1040.38 424.848 1041.01 424.543 1041.79 424.543C1043.13 424.543 1043.81 425.299 1043.82 426.811V431H1042.73V426.805C1042.73 426.348 1042.62 426.01 1042.42 425.791C1042.21 425.572 1041.9 425.463 1041.46 425.463C1041.11 425.463 1040.8 425.557 1040.54 425.744C1040.27 425.932 1040.06 426.178 1039.92 426.482V431H1038.83V424.66H1039.86ZM1047.54 429.529L1049.12 424.66H1050.22L1047.95 431H1047.12L1044.83 424.66H1045.93L1047.54 429.529ZM1053.73 430.232C1054.11 430.232 1054.45 430.115 1054.74 429.881C1055.03 429.646 1055.19 429.354 1055.22 429.002H1056.25C1056.23 429.365 1056.1 429.711 1055.87 430.039C1055.64 430.367 1055.33 430.629 1054.95 430.824C1054.56 431.02 1054.16 431.117 1053.73 431.117C1052.86 431.117 1052.18 430.83 1051.66 430.256C1051.16 429.678 1050.9 428.889 1050.9 427.889V427.707C1050.9 427.09 1051.02 426.541 1051.24 426.061C1051.47 425.58 1051.79 425.207 1052.21 424.941C1052.64 424.676 1053.14 424.543 1053.72 424.543C1054.43 424.543 1055.02 424.756 1055.49 425.182C1055.96 425.607 1056.21 426.16 1056.25 426.84H1055.22C1055.19 426.43 1055.03 426.094 1054.75 425.832C1054.47 425.566 1054.13 425.434 1053.72 425.434C1053.17 425.434 1052.74 425.633 1052.44 426.031C1052.14 426.426 1051.99 426.998 1051.99 427.748V427.953C1051.99 428.684 1052.14 429.246 1052.44 429.641C1052.74 430.035 1053.17 430.232 1053.73 430.232ZM1058.49 424.66L1058.53 425.457C1059.01 424.848 1059.64 424.543 1060.42 424.543C1061.76 424.543 1062.44 425.299 1062.45 426.811V431H1061.37V426.805C1061.36 426.348 1061.26 426.01 1061.05 425.791C1060.85 425.572 1060.53 425.463 1060.1 425.463C1059.74 425.463 1059.44 425.557 1059.17 425.744C1058.9 425.932 1058.7 426.178 1058.55 426.482V431H1057.46V424.66H1058.49ZM1066.21 426.975L1067.62 424.66H1068.88L1066.81 427.795L1068.95 431H1067.7L1066.23 428.627L1064.77 431H1063.51L1065.64 427.795L1063.57 424.66H1064.82L1066.21 426.975ZM1072.13 429.529L1073.7 424.66H1074.81L1072.54 431H1071.71L1069.41 424.66H1070.52L1072.13 429.529ZM1076.87 424.66L1076.9 425.363C1077.37 424.816 1077.99 424.543 1078.78 424.543C1079.67 424.543 1080.27 424.883 1080.59 425.562C1080.8 425.258 1081.08 425.012 1081.41 424.824C1081.75 424.637 1082.15 424.543 1082.61 424.543C1084 424.543 1084.71 425.279 1084.73 426.752V431H1083.65V426.816C1083.65 426.363 1083.55 426.025 1083.34 425.803C1083.13 425.576 1082.79 425.463 1082.3 425.463C1081.89 425.463 1081.56 425.584 1081.29 425.826C1081.03 426.064 1080.88 426.387 1080.83 426.793V431H1079.74V426.846C1079.74 425.924 1079.29 425.463 1078.39 425.463C1077.68 425.463 1077.19 425.766 1076.93 426.371V431H1075.85V424.66H1076.87ZM1088.5 426.975L1089.91 424.66H1091.17L1089.1 427.795L1091.24 431H1089.98L1088.52 428.627L1087.05 431H1085.79L1087.93 427.795L1085.86 424.66H1087.11L1088.5 426.975ZM1094.75 430.232C1095.14 430.232 1095.48 430.115 1095.77 429.881C1096.06 429.646 1096.22 429.354 1096.25 429.002H1097.27C1097.25 429.365 1097.13 429.711 1096.9 430.039C1096.67 430.367 1096.36 430.629 1095.97 430.824C1095.59 431.02 1095.18 431.117 1094.75 431.117C1093.89 431.117 1093.2 430.83 1092.69 430.256C1092.18 429.678 1091.93 428.889 1091.93 427.889V427.707C1091.93 427.09 1092.04 426.541 1092.27 426.061C1092.5 425.58 1092.82 425.207 1093.24 424.941C1093.67 424.676 1094.17 424.543 1094.75 424.543C1095.46 424.543 1096.05 424.756 1096.52 425.182C1096.99 425.607 1097.24 426.16 1097.27 426.84H1096.25C1096.22 426.43 1096.06 426.094 1095.78 425.832C1095.5 425.566 1095.16 425.434 1094.75 425.434C1094.2 425.434 1093.77 425.633 1093.46 426.031C1093.16 426.426 1093.01 426.998 1093.01 427.748V427.953C1093.01 428.684 1093.16 429.246 1093.46 429.641C1093.77 430.035 1094.2 430.232 1094.75 430.232ZM1099.52 424.66L1099.55 425.457C1100.04 424.848 1100.67 424.543 1101.45 424.543C1102.79 424.543 1103.47 425.299 1103.48 426.811V431H1102.39V426.805C1102.39 426.348 1102.29 426.01 1102.08 425.791C1101.88 425.572 1101.56 425.463 1101.12 425.463C1100.77 425.463 1100.46 425.557 1100.2 425.744C1099.93 425.932 1099.72 426.178 1099.58 426.482V431H1098.49V424.66H1099.52ZM1107.21 429.529L1108.78 424.66H1109.88L1107.61 431H1106.78L1104.49 424.66H1105.59L1107.21 429.529ZM1111.95 424.66L1111.97 425.363C1112.44 424.816 1113.07 424.543 1113.86 424.543C1114.74 424.543 1115.35 424.883 1115.67 425.562C1115.88 425.258 1116.15 425.012 1116.49 424.824C1116.83 424.637 1117.23 424.543 1117.69 424.543C1119.08 424.543 1119.79 425.279 1119.81 426.752V431H1118.72V426.816C1118.72 426.363 1118.62 426.025 1118.41 425.803C1118.21 425.576 1117.86 425.463 1117.37 425.463C1116.97 425.463 1116.63 425.584 1116.37 425.826C1116.1 426.064 1115.95 426.387 1115.91 426.793V431H1114.82V426.846C1114.82 425.924 1114.37 425.463 1113.46 425.463C1112.75 425.463 1112.27 425.766 1112 426.371V431H1110.92V424.66H1111.95ZM1123.58 426.975L1124.98 424.66H1126.25L1124.17 427.795L1126.31 431H1125.06L1123.59 428.627L1122.13 431H1120.87L1123.01 427.795L1120.93 424.66H1122.19L1123.58 426.975ZM1128.43 424.66L1128.46 425.457C1128.95 424.848 1129.58 424.543 1130.36 424.543C1131.7 424.543 1132.38 425.299 1132.39 426.811V431H1131.3V426.805C1131.3 426.348 1131.2 426.01 1130.99 425.791C1130.79 425.572 1130.47 425.463 1130.03 425.463C1129.68 425.463 1129.37 425.557 1129.11 425.744C1128.84 425.932 1128.63 426.178 1128.49 426.482V431H1127.4V424.66H1128.43ZM1136.12 429.529L1137.69 424.66H1138.79L1136.52 431H1135.69L1133.4 424.66H1134.5L1136.12 429.529ZM1141.96 426.975L1143.37 424.66H1144.63L1142.56 427.795L1144.7 431H1143.45L1141.98 428.627L1140.52 431H1139.26L1141.39 427.795L1139.32 424.66H1140.57L1141.96 426.975ZM1146.81 424.66L1146.84 425.363C1147.3 424.816 1147.93 424.543 1148.72 424.543C1149.61 424.543 1150.21 424.883 1150.53 425.562C1150.74 425.258 1151.01 425.012 1151.35 424.824C1151.69 424.637 1152.09 424.543 1152.55 424.543C1153.94 424.543 1154.65 425.279 1154.67 426.752V431H1153.59V426.816C1153.59 426.363 1153.48 426.025 1153.28 425.803C1153.07 425.576 1152.72 425.463 1152.23 425.463C1151.83 425.463 1151.5 425.584 1151.23 425.826C1150.97 426.064 1150.81 426.387 1150.77 426.793V431H1149.68V426.846C1149.68 425.924 1149.23 425.463 1148.33 425.463C1147.62 425.463 1147.13 425.766 1146.87 426.371V431H1145.78V424.66H1146.81ZM1158.86 430.232C1159.24 430.232 1159.58 430.115 1159.87 429.881C1160.16 429.646 1160.32 429.354 1160.35 429.002H1161.38C1161.36 429.365 1161.23 429.711 1161 430.039C1160.77 430.367 1160.46 430.629 1160.07 430.824C1159.69 431.02 1159.29 431.117 1158.86 431.117C1157.99 431.117 1157.3 430.83 1156.79 430.256C1156.29 429.678 1156.03 428.889 1156.03 427.889V427.707C1156.03 427.09 1156.14 426.541 1156.37 426.061C1156.6 425.58 1156.92 425.207 1157.34 424.941C1157.77 424.676 1158.27 424.543 1158.85 424.543C1159.56 424.543 1160.15 424.756 1160.62 425.182C1161.09 425.607 1161.34 426.16 1161.38 426.84H1160.35C1160.32 426.43 1160.16 426.094 1159.88 425.832C1159.6 425.566 1159.26 425.434 1158.85 425.434C1158.3 425.434 1157.87 425.633 1157.57 426.031C1157.27 426.426 1157.12 426.998 1157.12 427.748V427.953C1157.12 428.684 1157.27 429.246 1157.57 429.641C1157.87 430.035 1158.3 430.232 1158.86 430.232ZM1163.62 424.66L1163.65 425.457C1164.14 424.848 1164.77 424.543 1165.55 424.543C1166.89 424.543 1167.57 425.299 1167.58 426.811V431H1166.5V426.805C1166.49 426.348 1166.39 426.01 1166.18 425.791C1165.98 425.572 1165.66 425.463 1165.22 425.463C1164.87 425.463 1164.56 425.557 1164.3 425.744C1164.03 425.932 1163.83 426.178 1163.68 426.482V431H1162.59V424.66H1163.62ZM1171.31 429.529L1172.88 424.66H1173.98L1171.71 431H1170.88L1168.59 424.66H1169.7L1171.31 429.529ZM1177.15 426.975L1178.56 424.66H1179.83L1177.75 427.795L1179.89 431H1178.64L1177.17 428.627L1175.71 431H1174.45L1176.59 427.795L1174.51 424.66H1175.77L1177.15 426.975ZM1183.41 430.232C1183.79 430.232 1184.13 430.115 1184.42 429.881C1184.71 429.646 1184.87 429.354 1184.9 429.002H1185.93C1185.91 429.365 1185.78 429.711 1185.55 430.039C1185.32 430.367 1185.01 430.629 1184.62 430.824C1184.24 431.02 1183.84 431.117 1183.41 431.117C1182.54 431.117 1181.86 430.83 1181.34 430.256C1180.84 429.678 1180.58 428.889 1180.58 427.889V427.707C1180.58 427.09 1180.7 426.541 1180.92 426.061C1181.15 425.58 1181.47 425.207 1181.89 424.941C1182.32 424.676 1182.82 424.543 1183.4 424.543C1184.11 424.543 1184.7 424.756 1185.17 425.182C1185.64 425.607 1185.89 426.16 1185.93 426.84H1184.9C1184.87 426.43 1184.71 426.094 1184.43 425.832C1184.15 425.566 1183.81 425.434 1183.4 425.434C1182.85 425.434 1182.42 425.633 1182.12 426.031C1181.82 426.426 1181.67 426.998 1181.67 427.748V427.953C1181.67 428.684 1181.82 429.246 1182.12 429.641C1182.42 430.035 1182.85 430.232 1183.41 430.232ZM1188.16 424.66L1188.19 425.363C1188.66 424.816 1189.29 424.543 1190.07 424.543C1190.96 424.543 1191.56 424.883 1191.88 425.562C1192.1 425.258 1192.37 425.012 1192.71 424.824C1193.04 424.637 1193.45 424.543 1193.91 424.543C1195.3 424.543 1196 425.279 1196.03 426.752V431H1194.94V426.816C1194.94 426.363 1194.84 426.025 1194.63 425.803C1194.43 425.576 1194.08 425.463 1193.59 425.463C1193.19 425.463 1192.85 425.584 1192.59 425.826C1192.32 426.064 1192.17 426.387 1192.12 426.793V431H1191.04V426.846C1191.04 425.924 1190.58 425.463 1189.68 425.463C1188.97 425.463 1188.48 425.766 1188.22 426.371V431H1187.14V424.66H1188.16ZM1028.91 443.529L1030.48 438.66H1031.59L1029.32 445H1028.49L1026.19 438.66H1027.3L1028.91 443.529ZM1034.76 440.975L1036.17 438.66H1037.43L1035.36 441.795L1037.5 445H1036.24L1034.78 442.627L1033.31 445H1032.05L1034.19 441.795L1032.12 438.66H1033.37L1034.76 440.975ZM1041.01 444.232C1041.4 444.232 1041.74 444.115 1042.03 443.881C1042.31 443.646 1042.47 443.354 1042.51 443.002H1043.53C1043.51 443.365 1043.39 443.711 1043.16 444.039C1042.93 444.367 1042.62 444.629 1042.23 444.824C1041.85 445.02 1041.44 445.117 1041.01 445.117C1040.15 445.117 1039.46 444.83 1038.95 444.256C1038.44 443.678 1038.19 442.889 1038.19 441.889V441.707C1038.19 441.09 1038.3 440.541 1038.53 440.061C1038.75 439.58 1039.08 439.207 1039.5 438.941C1039.93 438.676 1040.43 438.543 1041.01 438.543C1041.72 438.543 1042.31 438.756 1042.78 439.182C1043.25 439.607 1043.5 440.16 1043.53 440.84H1042.51C1042.47 440.43 1042.32 440.094 1042.04 439.832C1041.76 439.566 1041.42 439.434 1041.01 439.434C1040.46 439.434 1040.03 439.633 1039.72 440.031C1039.42 440.426 1039.27 440.998 1039.27 441.748V441.953C1039.27 442.684 1039.42 443.246 1039.72 443.641C1040.02 444.035 1040.45 444.232 1041.01 444.232ZM1045.87 438.66V445.732C1045.87 446.951 1045.32 447.561 1044.21 447.561C1043.97 447.561 1043.75 447.525 1043.55 447.455V446.588C1043.67 446.619 1043.84 446.635 1044.04 446.635C1044.28 446.635 1044.47 446.568 1044.59 446.436C1044.72 446.307 1044.79 446.08 1044.79 445.756V438.66H1045.87ZM1044.67 436.979C1044.67 436.807 1044.73 436.66 1044.83 436.539C1044.94 436.414 1045.1 436.352 1045.31 436.352C1045.52 436.352 1045.68 436.412 1045.79 436.533C1045.9 436.654 1045.95 436.803 1045.95 436.979C1045.95 437.154 1045.9 437.301 1045.79 437.418C1045.68 437.535 1045.52 437.594 1045.31 437.594C1045.1 437.594 1044.94 437.535 1044.83 437.418C1044.73 437.301 1044.67 437.154 1044.67 436.979ZM1048.65 438.66L1048.68 439.457C1049.17 438.848 1049.8 438.543 1050.58 438.543C1051.92 438.543 1052.6 439.299 1052.61 440.811V445H1051.52V440.805C1051.52 440.348 1051.41 440.01 1051.21 439.791C1051 439.572 1050.69 439.463 1050.25 439.463C1049.9 439.463 1049.59 439.557 1049.33 439.744C1049.06 439.932 1048.85 440.178 1048.71 440.482V445H1047.62V438.66H1048.65ZM1055.27 438.66L1055.3 439.457C1055.79 438.848 1056.42 438.543 1057.2 438.543C1058.54 438.543 1059.22 439.299 1059.23 440.811V445H1058.14V440.805C1058.14 440.348 1058.04 440.01 1057.83 439.791C1057.62 439.572 1057.31 439.463 1056.87 439.463C1056.52 439.463 1056.21 439.557 1055.95 439.744C1055.68 439.932 1055.47 440.178 1055.33 440.482V445H1054.24V438.66H1055.27ZM1062.96 443.529L1064.53 438.66H1065.63L1063.36 445H1062.53L1060.24 438.66H1061.34L1062.96 443.529ZM1068.45 442.064L1067.77 442.773V445H1066.68V436H1067.77V441.443L1068.35 440.746L1070.32 438.66H1071.64L1069.17 441.309L1071.93 445H1070.65L1068.45 442.064ZM1073.88 438.66V445.732C1073.88 446.951 1073.32 447.561 1072.22 447.561C1071.98 447.561 1071.76 447.525 1071.56 447.455V446.588C1071.68 446.619 1071.85 446.635 1072.05 446.635C1072.29 446.635 1072.47 446.568 1072.6 446.436C1072.73 446.307 1072.79 446.08 1072.79 445.756V438.66H1073.88ZM1072.68 436.979C1072.68 436.807 1072.73 436.66 1072.84 436.539C1072.95 436.414 1073.11 436.352 1073.31 436.352C1073.53 436.352 1073.69 436.412 1073.79 436.533C1073.9 436.654 1073.96 436.803 1073.96 436.979C1073.96 437.154 1073.9 437.301 1073.79 437.418C1073.69 437.535 1073.53 437.594 1073.31 437.594C1073.1 437.594 1072.95 437.535 1072.84 437.418C1072.73 437.301 1072.68 437.154 1072.68 436.979ZM1077.76 440.975L1079.16 438.66H1080.43L1078.35 441.795L1080.49 445H1079.24L1077.77 442.627L1076.31 445H1075.05L1077.19 441.795L1075.11 438.66H1076.37L1077.76 440.975ZM1084.01 444.232C1084.39 444.232 1084.73 444.115 1085.02 443.881C1085.31 443.646 1085.47 443.354 1085.5 443.002H1086.53C1086.51 443.365 1086.38 443.711 1086.15 444.039C1085.92 444.367 1085.61 444.629 1085.23 444.824C1084.84 445.02 1084.44 445.117 1084.01 445.117C1083.14 445.117 1082.46 444.83 1081.95 444.256C1081.44 443.678 1081.18 442.889 1081.18 441.889V441.707C1081.18 441.09 1081.3 440.541 1081.52 440.061C1081.75 439.58 1082.07 439.207 1082.5 438.941C1082.92 438.676 1083.42 438.543 1084 438.543C1084.71 438.543 1085.3 438.756 1085.77 439.182C1086.24 439.607 1086.5 440.16 1086.53 440.84H1085.5C1085.47 440.43 1085.31 440.094 1085.03 439.832C1084.76 439.566 1084.41 439.434 1084 439.434C1083.45 439.434 1083.02 439.633 1082.72 440.031C1082.42 440.426 1082.27 440.998 1082.27 441.748V441.953C1082.27 442.684 1082.42 443.246 1082.72 443.641C1083.02 444.035 1083.45 444.232 1084.01 444.232ZM1088.77 438.66L1088.79 439.363C1089.26 438.816 1089.89 438.543 1090.68 438.543C1091.56 438.543 1092.17 438.883 1092.49 439.562C1092.7 439.258 1092.97 439.012 1093.31 438.824C1093.65 438.637 1094.05 438.543 1094.51 438.543C1095.9 438.543 1096.61 439.279 1096.63 440.752V445H1095.54V440.816C1095.54 440.363 1095.44 440.025 1095.23 439.803C1095.03 439.576 1094.68 439.463 1094.19 439.463C1093.79 439.463 1093.46 439.584 1093.19 439.826C1092.92 440.064 1092.77 440.387 1092.73 440.793V445H1091.64V440.846C1091.64 439.924 1091.19 439.463 1090.28 439.463C1089.57 439.463 1089.09 439.766 1088.82 440.371V445H1087.74V438.66H1088.77ZM1099.29 438.66L1099.33 439.457C1099.81 438.848 1100.45 438.543 1101.23 438.543C1102.57 438.543 1103.24 439.299 1103.26 440.811V445H1102.17V440.805C1102.17 440.348 1102.06 440.01 1101.86 439.791C1101.65 439.572 1101.33 439.463 1100.9 439.463C1100.55 439.463 1100.24 439.557 1099.97 439.744C1099.71 439.932 1099.5 440.178 1099.35 440.482V445H1098.27V438.66H1099.29ZM1106.66 442.064L1105.98 442.773V445H1104.9V436H1105.98V441.443L1106.56 440.746L1108.54 438.66H1109.85L1107.39 441.309L1110.14 445H1108.87L1106.66 442.064ZM1112.09 438.66V445.732C1112.09 446.951 1111.54 447.561 1110.43 447.561C1110.2 447.561 1109.97 447.525 1109.77 447.455V446.588C1109.9 446.619 1110.06 446.635 1110.26 446.635C1110.51 446.635 1110.69 446.568 1110.81 446.436C1110.94 446.307 1111.01 446.08 1111.01 445.756V438.66H1112.09ZM1110.9 436.979C1110.9 436.807 1110.95 436.66 1111.05 436.539C1111.16 436.414 1111.32 436.352 1111.53 436.352C1111.74 436.352 1111.9 436.412 1112.01 436.533C1112.12 436.654 1112.17 436.803 1112.17 436.979C1112.17 437.154 1112.12 437.301 1112.01 437.418C1111.9 437.535 1111.74 437.594 1111.53 437.594C1111.32 437.594 1111.16 437.535 1111.05 437.418C1110.95 437.301 1110.9 437.154 1110.9 436.979ZM1115.97 440.975L1117.38 438.66H1118.64L1116.57 441.795L1118.71 445H1117.45L1115.99 442.627L1114.52 445H1113.26L1115.4 441.795L1113.33 438.66H1114.58L1115.97 440.975ZM1122.22 444.232C1122.61 444.232 1122.95 444.115 1123.24 443.881C1123.53 443.646 1123.69 443.354 1123.72 443.002H1124.74C1124.72 443.365 1124.6 443.711 1124.37 444.039C1124.14 444.367 1123.83 444.629 1123.44 444.824C1123.06 445.02 1122.65 445.117 1122.22 445.117C1121.36 445.117 1120.67 444.83 1120.16 444.256C1119.65 443.678 1119.4 442.889 1119.4 441.889V441.707C1119.4 441.09 1119.51 440.541 1119.74 440.061C1119.96 439.58 1120.29 439.207 1120.71 438.941C1121.14 438.676 1121.64 438.543 1122.22 438.543C1122.93 438.543 1123.52 438.756 1123.99 439.182C1124.46 439.607 1124.71 440.16 1124.74 440.84H1123.72C1123.69 440.43 1123.53 440.094 1123.25 439.832C1122.97 439.566 1122.63 439.434 1122.22 439.434C1121.67 439.434 1121.24 439.633 1120.93 440.031C1120.63 440.426 1120.48 440.998 1120.48 441.748V441.953C1120.48 442.684 1120.63 443.246 1120.93 443.641C1121.23 444.035 1121.66 444.232 1122.22 444.232ZM1126.99 438.66L1127.02 439.457C1127.51 438.848 1128.14 438.543 1128.92 438.543C1130.26 438.543 1130.94 439.299 1130.95 440.811V445H1129.86V440.805C1129.86 440.348 1129.75 440.01 1129.55 439.791C1129.34 439.572 1129.03 439.463 1128.59 439.463C1128.24 439.463 1127.93 439.557 1127.67 439.744C1127.4 439.932 1127.19 440.178 1127.04 440.482V445H1125.96V438.66H1126.99ZM1134.67 443.529L1136.24 438.66H1137.35L1135.08 445H1134.25L1131.96 438.66H1133.06L1134.67 443.529ZM1140.16 442.064L1139.48 442.773V445H1138.4V436H1139.48V441.443L1140.06 440.746L1142.04 438.66H1143.36L1140.89 441.309L1143.64 445H1142.37L1140.16 442.064ZM1146.9 444.232C1147.29 444.232 1147.63 444.115 1147.92 443.881C1148.21 443.646 1148.37 443.354 1148.4 443.002H1149.42C1149.4 443.365 1149.28 443.711 1149.05 444.039C1148.82 444.367 1148.51 444.629 1148.12 444.824C1147.74 445.02 1147.33 445.117 1146.9 445.117C1146.04 445.117 1145.35 444.83 1144.84 444.256C1144.33 443.678 1144.08 442.889 1144.08 441.889V441.707C1144.08 441.09 1144.19 440.541 1144.42 440.061C1144.64 439.58 1144.97 439.207 1145.39 438.941C1145.82 438.676 1146.32 438.543 1146.9 438.543C1147.61 438.543 1148.2 438.756 1148.67 439.182C1149.14 439.607 1149.39 440.16 1149.42 440.84H1148.4C1148.37 440.43 1148.21 440.094 1147.93 439.832C1147.65 439.566 1147.31 439.434 1146.9 439.434C1146.35 439.434 1145.92 439.633 1145.61 440.031C1145.31 440.426 1145.16 440.998 1145.16 441.748V441.953C1145.16 442.684 1145.31 443.246 1145.61 443.641C1145.91 444.035 1146.34 444.232 1146.9 444.232ZM1152.77 440.975L1154.17 438.66H1155.44L1153.37 441.795L1155.5 445H1154.25L1152.79 442.627L1151.32 445H1150.06L1152.2 441.795L1150.12 438.66H1151.38L1152.77 440.975ZM1157.71 438.66V445.732C1157.71 446.951 1157.16 447.561 1156.05 447.561C1155.82 447.561 1155.6 447.525 1155.39 447.455V446.588C1155.52 446.619 1155.68 446.635 1155.88 446.635C1156.13 446.635 1156.31 446.568 1156.44 446.436C1156.56 446.307 1156.63 446.08 1156.63 445.756V438.66H1157.71ZM1156.52 436.979C1156.52 436.807 1156.57 436.66 1156.68 436.539C1156.79 436.414 1156.94 436.352 1157.15 436.352C1157.36 436.352 1157.52 436.412 1157.63 436.533C1157.74 436.654 1157.79 436.803 1157.79 436.979C1157.79 437.154 1157.74 437.301 1157.63 437.418C1157.52 437.535 1157.36 437.594 1157.15 437.594C1156.94 437.594 1156.78 437.535 1156.68 437.418C1156.57 437.301 1156.52 437.154 1156.52 436.979ZM1160.49 438.66L1160.53 439.457C1161.01 438.848 1161.64 438.543 1162.42 438.543C1163.76 438.543 1164.44 439.299 1164.45 440.811V445H1163.37V440.805C1163.36 440.348 1163.26 440.01 1163.05 439.791C1162.85 439.572 1162.53 439.463 1162.1 439.463C1161.74 439.463 1161.44 439.557 1161.17 439.744C1160.9 439.932 1160.7 440.178 1160.55 440.482V445H1159.46V438.66H1160.49ZM1168.18 443.529L1169.75 438.66H1170.86L1168.58 445H1167.76L1165.46 438.66H1166.57L1168.18 443.529ZM1029.36 472.232C1029.75 472.232 1030.09 472.115 1030.38 471.881C1030.67 471.646 1030.83 471.354 1030.86 471.002H1031.88C1031.86 471.365 1031.74 471.711 1031.51 472.039C1031.28 472.367 1030.97 472.629 1030.58 472.824C1030.2 473.02 1029.79 473.117 1029.36 473.117C1028.5 473.117 1027.81 472.83 1027.3 472.256C1026.79 471.678 1026.54 470.889 1026.54 469.889V469.707C1026.54 469.09 1026.65 468.541 1026.88 468.061C1027.11 467.58 1027.43 467.207 1027.85 466.941C1028.28 466.676 1028.78 466.543 1029.36 466.543C1030.07 466.543 1030.66 466.756 1031.13 467.182C1031.6 467.607 1031.85 468.16 1031.88 468.84H1030.86C1030.83 468.43 1030.67 468.094 1030.39 467.832C1030.11 467.566 1029.77 467.434 1029.36 467.434C1028.81 467.434 1028.38 467.633 1028.07 468.031C1027.77 468.426 1027.62 468.998 1027.62 469.748V469.953C1027.62 470.684 1027.77 471.246 1028.07 471.641C1028.38 472.035 1028.8 472.232 1029.36 472.232ZM1035.23 468.975L1036.63 466.66H1037.9L1035.83 469.795L1037.96 473H1036.71L1035.25 470.627L1033.78 473H1032.52L1034.66 469.795L1032.59 466.66H1033.84L1035.23 468.975ZM1040.08 466.66L1040.12 467.457C1040.6 466.848 1041.23 466.543 1042.01 466.543C1043.35 466.543 1044.03 467.299 1044.04 468.811V473H1042.96V468.805C1042.95 468.348 1042.85 468.01 1042.64 467.791C1042.44 467.572 1042.12 467.463 1041.69 467.463C1041.33 467.463 1041.03 467.557 1040.76 467.744C1040.49 467.932 1040.29 468.178 1040.14 468.482V473H1039.05V466.66H1040.08ZM1047.45 470.064L1046.77 470.773V473H1045.68V464H1046.77V469.443L1047.35 468.746L1049.32 466.66H1050.64L1048.17 469.309L1050.93 473H1049.65L1047.45 470.064ZM1054.18 472.232C1054.57 472.232 1054.91 472.115 1055.2 471.881C1055.49 471.646 1055.65 471.354 1055.68 471.002H1056.7C1056.68 471.365 1056.56 471.711 1056.33 472.039C1056.1 472.367 1055.79 472.629 1055.4 472.824C1055.02 473.02 1054.61 473.117 1054.18 473.117C1053.32 473.117 1052.63 472.83 1052.12 472.256C1051.61 471.678 1051.36 470.889 1051.36 469.889V469.707C1051.36 469.09 1051.47 468.541 1051.7 468.061C1051.93 467.58 1052.25 467.207 1052.67 466.941C1053.1 466.676 1053.6 466.543 1054.18 466.543C1054.89 466.543 1055.48 466.756 1055.95 467.182C1056.42 467.607 1056.67 468.16 1056.7 468.84H1055.68C1055.65 468.43 1055.49 468.094 1055.21 467.832C1054.93 467.566 1054.59 467.434 1054.18 467.434C1053.63 467.434 1053.2 467.633 1052.89 468.031C1052.59 468.426 1052.44 468.998 1052.44 469.748V469.953C1052.44 470.684 1052.59 471.246 1052.89 471.641C1053.2 472.035 1053.62 472.232 1054.18 472.232ZM1060.01 471.529L1061.58 466.66H1062.69L1060.42 473H1059.59L1057.29 466.66H1058.4L1060.01 471.529ZM1065.86 468.975L1067.27 466.66H1068.53L1066.46 469.795L1068.6 473H1067.34L1065.88 470.627L1064.41 473H1063.15L1065.29 469.795L1063.22 466.66H1064.47L1065.86 468.975ZM1070.71 466.66L1070.75 467.457C1071.23 466.848 1071.87 466.543 1072.65 466.543C1073.99 466.543 1074.66 467.299 1074.67 468.811V473H1073.59V468.805C1073.59 468.348 1073.48 468.01 1073.27 467.791C1073.07 467.572 1072.75 467.463 1072.32 467.463C1071.97 467.463 1071.66 467.557 1071.39 467.744C1071.13 467.932 1070.92 468.178 1070.77 468.482V473H1069.69V466.66H1070.71ZM1078.08 470.064L1077.4 470.773V473H1076.31V464H1077.4V469.443L1077.98 468.746L1079.95 466.66H1081.27L1078.8 469.309L1081.56 473H1080.29L1078.08 470.064ZM1084.82 472.232C1085.2 472.232 1085.54 472.115 1085.83 471.881C1086.12 471.646 1086.28 471.354 1086.31 471.002H1087.34C1087.32 471.365 1087.19 471.711 1086.96 472.039C1086.73 472.367 1086.42 472.629 1086.04 472.824C1085.65 473.02 1085.25 473.117 1084.82 473.117C1083.95 473.117 1083.27 472.83 1082.75 472.256C1082.25 471.678 1081.99 470.889 1081.99 469.889V469.707C1081.99 469.09 1082.11 468.541 1082.33 468.061C1082.56 467.58 1082.88 467.207 1083.3 466.941C1083.73 466.676 1084.23 466.543 1084.81 466.543C1085.52 466.543 1086.11 466.756 1086.58 467.182C1087.05 467.607 1087.3 468.16 1087.34 468.84H1086.31C1086.28 468.43 1086.12 468.094 1085.84 467.832C1085.56 467.566 1085.22 467.434 1084.81 467.434C1084.26 467.434 1083.83 467.633 1083.53 468.031C1083.23 468.426 1083.08 468.998 1083.08 469.748V469.953C1083.08 470.684 1083.23 471.246 1083.53 471.641C1083.83 472.035 1084.26 472.232 1084.82 472.232ZM1090.65 471.529L1092.22 466.66H1093.32L1091.05 473H1090.22L1087.93 466.66H1089.04L1090.65 471.529ZM1096.49 468.975L1097.9 466.66H1099.17L1097.09 469.795L1099.23 473H1097.98L1096.51 470.627L1095.05 473H1093.79L1095.93 469.795L1093.85 466.66H1095.11L1096.49 468.975ZM1102.09 470.064L1101.41 470.773V473H1100.33V464H1101.41V469.443L1101.99 468.746L1103.96 466.66H1105.28L1102.82 469.309L1105.57 473H1104.3L1102.09 470.064ZM1107.52 466.66V473.732C1107.52 474.951 1106.97 475.561 1105.86 475.561C1105.62 475.561 1105.4 475.525 1105.2 475.455V474.588C1105.33 474.619 1105.49 474.635 1105.69 474.635C1105.94 474.635 1106.12 474.568 1106.24 474.436C1106.37 474.307 1106.44 474.08 1106.44 473.756V466.66H1107.52ZM1106.33 464.979C1106.33 464.807 1106.38 464.66 1106.48 464.539C1106.59 464.414 1106.75 464.352 1106.96 464.352C1107.17 464.352 1107.33 464.412 1107.44 464.533C1107.55 464.654 1107.6 464.803 1107.6 464.979C1107.6 465.154 1107.55 465.301 1107.44 465.418C1107.33 465.535 1107.17 465.594 1106.96 465.594C1106.75 465.594 1106.59 465.535 1106.48 465.418C1106.38 465.301 1106.33 465.154 1106.33 464.979ZM1110.3 466.66L1110.33 467.457C1110.82 466.848 1111.45 466.543 1112.23 466.543C1113.57 466.543 1114.25 467.299 1114.26 468.811V473H1113.18V468.805C1113.17 468.348 1113.07 468.01 1112.86 467.791C1112.66 467.572 1112.34 467.463 1111.9 467.463C1111.55 467.463 1111.24 467.557 1110.98 467.744C1110.71 467.932 1110.51 468.178 1110.36 468.482V473H1109.27V466.66H1110.3ZM1118.02 468.975L1119.43 466.66H1120.69L1118.62 469.795L1120.76 473H1119.5L1118.04 470.627L1116.57 473H1115.31L1117.45 469.795L1115.38 466.66H1116.63L1118.02 468.975ZM1124.27 472.232C1124.66 472.232 1125 472.115 1125.29 471.881C1125.58 471.646 1125.74 471.354 1125.77 471.002H1126.79C1126.77 471.365 1126.65 471.711 1126.42 472.039C1126.19 472.367 1125.88 472.629 1125.49 472.824C1125.11 473.02 1124.7 473.117 1124.27 473.117C1123.41 473.117 1122.72 472.83 1122.21 472.256C1121.7 471.678 1121.45 470.889 1121.45 469.889V469.707C1121.45 469.09 1121.56 468.541 1121.79 468.061C1122.02 467.58 1122.34 467.207 1122.76 466.941C1123.19 466.676 1123.69 466.543 1124.27 466.543C1124.98 466.543 1125.57 466.756 1126.04 467.182C1126.51 467.607 1126.76 468.16 1126.79 468.84H1125.77C1125.74 468.43 1125.58 468.094 1125.3 467.832C1125.02 467.566 1124.68 467.434 1124.27 467.434C1123.72 467.434 1123.29 467.633 1122.98 468.031C1122.68 468.426 1122.53 468.998 1122.53 469.748V469.953C1122.53 470.684 1122.68 471.246 1122.98 471.641C1123.29 472.035 1123.71 472.232 1124.27 472.232ZM1130.1 471.529L1131.67 466.66H1132.78L1130.51 473H1129.68L1127.38 466.66H1128.49L1130.1 471.529ZM1134.94 466.66V473.732C1134.94 474.951 1134.39 475.561 1133.29 475.561C1133.05 475.561 1132.83 475.525 1132.62 475.455V474.588C1132.75 474.619 1132.91 474.635 1133.12 474.635C1133.36 474.635 1133.54 474.568 1133.67 474.436C1133.79 474.307 1133.86 474.08 1133.86 473.756V466.66H1134.94ZM1133.75 464.979C1133.75 464.807 1133.8 464.66 1133.91 464.539C1134.02 464.414 1134.17 464.352 1134.38 464.352C1134.59 464.352 1134.75 464.412 1134.86 464.533C1134.97 464.654 1135.03 464.803 1135.03 464.979C1135.03 465.154 1134.97 465.301 1134.86 465.418C1134.75 465.535 1134.59 465.594 1134.38 465.594C1134.17 465.594 1134.01 465.535 1133.91 465.418C1133.8 465.301 1133.75 465.154 1133.75 464.979ZM1137.72 466.66L1137.76 467.457C1138.24 466.848 1138.87 466.543 1139.65 466.543C1140.99 466.543 1141.67 467.299 1141.68 468.811V473H1140.6V468.805C1140.59 468.348 1140.49 468.01 1140.28 467.791C1140.08 467.572 1139.76 467.463 1139.33 467.463C1138.97 467.463 1138.67 467.557 1138.4 467.744C1138.13 467.932 1137.93 468.178 1137.78 468.482V473H1136.7V466.66H1137.72ZM1145.44 468.975L1146.85 466.66H1148.12L1146.04 469.795L1148.18 473H1146.93L1145.46 470.627L1144 473H1142.74L1144.88 469.795L1142.8 466.66H1144.05L1145.44 468.975ZM1151.7 472.232C1152.08 472.232 1152.42 472.115 1152.71 471.881C1153 471.646 1153.16 471.354 1153.19 471.002H1154.21C1154.2 471.365 1154.07 471.711 1153.84 472.039C1153.61 472.367 1153.3 472.629 1152.91 472.824C1152.53 473.02 1152.12 473.117 1151.7 473.117C1150.83 473.117 1150.14 472.83 1149.63 472.256C1149.12 471.678 1148.87 470.889 1148.87 469.889V469.707C1148.87 469.09 1148.98 468.541 1149.21 468.061C1149.44 467.58 1149.76 467.207 1150.18 466.941C1150.61 466.676 1151.11 466.543 1151.69 466.543C1152.4 466.543 1152.99 466.756 1153.46 467.182C1153.93 467.607 1154.18 468.16 1154.21 468.84H1153.19C1153.16 468.43 1153 468.094 1152.72 467.832C1152.44 467.566 1152.1 467.434 1151.69 467.434C1151.14 467.434 1150.71 467.633 1150.41 468.031C1150.11 468.426 1149.96 468.998 1149.96 469.748V469.953C1149.96 470.684 1150.11 471.246 1150.41 471.641C1150.71 472.035 1151.14 472.232 1151.7 472.232ZM1157.2 470.064L1156.52 470.773V473H1155.44V464H1156.52V469.443L1157.1 468.746L1159.08 466.66H1160.4L1157.93 469.309L1160.68 473H1159.41L1157.2 470.064ZM1162.63 466.66V473.732C1162.63 474.951 1162.08 475.561 1160.98 475.561C1160.74 475.561 1160.52 475.525 1160.31 475.455V474.588C1160.44 474.619 1160.6 474.635 1160.81 474.635C1161.05 474.635 1161.23 474.568 1161.36 474.436C1161.49 474.307 1161.55 474.08 1161.55 473.756V466.66H1162.63ZM1161.44 464.979C1161.44 464.807 1161.49 464.66 1161.6 464.539C1161.71 464.414 1161.87 464.352 1162.07 464.352C1162.28 464.352 1162.44 464.412 1162.55 464.533C1162.66 464.654 1162.72 464.803 1162.72 464.979C1162.72 465.154 1162.66 465.301 1162.55 465.418C1162.44 465.535 1162.28 465.594 1162.07 465.594C1161.86 465.594 1161.7 465.535 1161.6 465.418C1161.49 465.301 1161.44 465.154 1161.44 464.979ZM1165.41 466.66L1165.45 467.457C1165.93 466.848 1166.56 466.543 1167.35 466.543C1168.69 466.543 1169.36 467.299 1169.37 468.811V473H1168.29V468.805C1168.29 468.348 1168.18 468.01 1167.97 467.791C1167.77 467.572 1167.45 467.463 1167.02 467.463C1166.67 467.463 1166.36 467.557 1166.09 467.744C1165.83 467.932 1165.62 468.178 1165.47 468.482V473H1164.39V466.66H1165.41ZM1173.1 471.529L1174.67 466.66H1175.78L1173.5 473H1172.68L1170.38 466.66H1171.49L1173.1 471.529ZM1178.95 468.975L1180.35 466.66H1181.62L1179.54 469.795L1181.68 473H1180.43L1178.96 470.627L1177.5 473H1176.24L1178.38 469.795L1176.3 466.66H1177.56L1178.95 468.975ZM1183.89 466.66V473.732C1183.89 474.951 1183.34 475.561 1182.23 475.561C1182 475.561 1181.78 475.525 1181.57 475.455V474.588C1181.7 474.619 1181.86 474.635 1182.06 474.635C1182.31 474.635 1182.49 474.568 1182.62 474.436C1182.74 474.307 1182.81 474.08 1182.81 473.756V466.66H1183.89ZM1182.7 464.979C1182.7 464.807 1182.75 464.66 1182.86 464.539C1182.96 464.414 1183.12 464.352 1183.33 464.352C1183.54 464.352 1183.7 464.412 1183.81 464.533C1183.92 464.654 1183.97 464.803 1183.97 464.979C1183.97 465.154 1183.92 465.301 1183.81 465.418C1183.7 465.535 1183.54 465.594 1183.33 465.594C1183.12 465.594 1182.96 465.535 1182.86 465.418C1182.75 465.301 1182.7 465.154 1182.7 464.979ZM1187.41 470.064L1186.73 470.773V473H1185.65V464H1186.73V469.443L1187.31 468.746L1189.29 466.66H1190.61L1188.14 469.309L1190.89 473H1189.62L1187.41 470.064ZM1192.75 466.66L1192.79 467.457C1193.27 466.848 1193.9 466.543 1194.69 466.543C1196.03 466.543 1196.7 467.299 1196.71 468.811V473H1195.63V468.805C1195.62 468.348 1195.52 468.01 1195.31 467.791C1195.11 467.572 1194.79 467.463 1194.36 467.463C1194.01 467.463 1193.7 467.557 1193.43 467.744C1193.17 467.932 1192.96 468.178 1192.81 468.482V473H1191.73V466.66H1192.75ZM1028.95 482.975L1030.35 480.66H1031.62L1029.54 483.795L1031.68 487H1030.43L1028.96 484.627L1027.5 487H1026.24L1028.38 483.795L1026.3 480.66H1027.56L1028.95 482.975ZM1034.87 485.529L1036.44 480.66H1037.54L1035.27 487H1034.44L1032.15 480.66H1033.25L1034.87 485.529ZM1039.61 480.66L1039.65 481.457C1040.13 480.848 1040.76 480.543 1041.54 480.543C1042.88 480.543 1043.56 481.299 1043.57 482.811V487H1042.49V482.805C1042.48 482.348 1042.38 482.01 1042.17 481.791C1041.97 481.572 1041.65 481.463 1041.22 481.463C1040.87 481.463 1040.56 481.557 1040.29 481.744C1040.03 481.932 1039.82 482.178 1039.67 482.482V487H1038.59V480.66H1039.61ZM1046.33 480.66V487.732C1046.33 488.951 1045.77 489.561 1044.67 489.561C1044.43 489.561 1044.21 489.525 1044.01 489.455V488.588C1044.13 488.619 1044.29 488.635 1044.5 488.635C1044.74 488.635 1044.92 488.568 1045.05 488.436C1045.18 488.307 1045.24 488.08 1045.24 487.756V480.66H1046.33ZM1045.13 478.979C1045.13 478.807 1045.18 478.66 1045.29 478.539C1045.4 478.414 1045.56 478.352 1045.76 478.352C1045.97 478.352 1046.13 478.412 1046.24 478.533C1046.35 478.654 1046.41 478.803 1046.41 478.979C1046.41 479.154 1046.35 479.301 1046.24 479.418C1046.13 479.535 1045.97 479.594 1045.76 479.594C1045.55 479.594 1045.39 479.535 1045.29 479.418C1045.18 479.301 1045.13 479.154 1045.13 478.979ZM1050.21 482.975L1051.61 480.66H1052.88L1050.8 483.795L1052.94 487H1051.69L1050.22 484.627L1048.76 487H1047.5L1049.64 483.795L1047.56 480.66H1048.82L1050.21 482.975ZM1056.12 485.529L1057.69 480.66H1058.8L1056.53 487H1055.7L1053.4 480.66H1054.51L1056.12 485.529ZM1061.61 484.064L1060.93 484.773V487H1059.85V478H1060.93V483.443L1061.51 482.746L1063.49 480.66H1064.81L1062.34 483.309L1065.09 487H1063.82L1061.61 484.064ZM1067.04 480.66V487.732C1067.04 488.951 1066.49 489.561 1065.39 489.561C1065.15 489.561 1064.93 489.525 1064.72 489.455V488.588C1064.85 488.619 1065.01 488.635 1065.22 488.635C1065.46 488.635 1065.64 488.568 1065.77 488.436C1065.9 488.307 1065.96 488.08 1065.96 487.756V480.66H1067.04ZM1065.85 478.979C1065.85 478.807 1065.9 478.66 1066.01 478.539C1066.12 478.414 1066.28 478.352 1066.48 478.352C1066.69 478.352 1066.85 478.412 1066.96 478.533C1067.07 478.654 1067.13 478.803 1067.13 478.979C1067.13 479.154 1067.07 479.301 1066.96 479.418C1066.85 479.535 1066.69 479.594 1066.48 479.594C1066.27 479.594 1066.11 479.535 1066.01 479.418C1065.9 479.301 1065.85 479.154 1065.85 478.979ZM1069.82 480.66L1069.86 481.457C1070.34 480.848 1070.97 480.543 1071.76 480.543C1073.1 480.543 1073.77 481.299 1073.78 482.811V487H1072.7V482.805C1072.7 482.348 1072.59 482.01 1072.38 481.791C1072.18 481.572 1071.86 481.463 1071.43 481.463C1071.08 481.463 1070.77 481.557 1070.5 481.744C1070.24 481.932 1070.03 482.178 1069.88 482.482V487H1068.8V480.66H1069.82ZM1077.54 482.975L1078.95 480.66H1080.22L1078.14 483.795L1080.28 487H1079.03L1077.56 484.627L1076.1 487H1074.84L1076.98 483.795L1074.9 480.66H1076.16L1077.54 482.975ZM1083.8 486.232C1084.18 486.232 1084.52 486.115 1084.81 485.881C1085.1 485.646 1085.26 485.354 1085.29 485.002H1086.32C1086.3 485.365 1086.17 485.711 1085.94 486.039C1085.71 486.367 1085.4 486.629 1085.02 486.824C1084.63 487.02 1084.23 487.117 1083.8 487.117C1082.93 487.117 1082.25 486.83 1081.73 486.256C1081.23 485.678 1080.97 484.889 1080.97 483.889V483.707C1080.97 483.09 1081.09 482.541 1081.31 482.061C1081.54 481.58 1081.86 481.207 1082.29 480.941C1082.71 480.676 1083.21 480.543 1083.79 480.543C1084.5 480.543 1085.09 480.756 1085.56 481.182C1086.03 481.607 1086.29 482.16 1086.32 482.84H1085.29C1085.26 482.43 1085.1 482.094 1084.82 481.832C1084.54 481.566 1084.2 481.434 1083.79 481.434C1083.24 481.434 1082.81 481.633 1082.51 482.031C1082.21 482.426 1082.06 482.998 1082.06 483.748V483.953C1082.06 484.684 1082.21 485.246 1082.51 485.641C1082.81 486.035 1083.24 486.232 1083.8 486.232ZM1088.56 480.66L1088.6 481.457C1089.08 480.848 1089.71 480.543 1090.49 480.543C1091.83 480.543 1092.51 481.299 1092.52 482.811V487H1091.44V482.805C1091.43 482.348 1091.33 482.01 1091.12 481.791C1090.92 481.572 1090.6 481.463 1090.17 481.463C1089.81 481.463 1089.51 481.557 1089.24 481.744C1088.97 481.932 1088.77 482.178 1088.62 482.482V487H1087.54V480.66H1088.56ZM1095.28 480.66V487.732C1095.28 488.951 1094.72 489.561 1093.62 489.561C1093.38 489.561 1093.16 489.525 1092.96 489.455V488.588C1093.08 488.619 1093.24 488.635 1093.45 488.635C1093.69 488.635 1093.87 488.568 1094 488.436C1094.13 488.307 1094.19 488.08 1094.19 487.756V480.66H1095.28ZM1094.08 478.979C1094.08 478.807 1094.13 478.66 1094.24 478.539C1094.35 478.414 1094.51 478.352 1094.71 478.352C1094.92 478.352 1095.08 478.412 1095.19 478.533C1095.3 478.654 1095.36 478.803 1095.36 478.979C1095.36 479.154 1095.3 479.301 1095.19 479.418C1095.08 479.535 1094.92 479.594 1094.71 479.594C1094.5 479.594 1094.34 479.535 1094.24 479.418C1094.13 479.301 1094.08 479.154 1094.08 478.979ZM1098.8 484.064L1098.12 484.773V487H1097.03V478H1098.12V483.443L1098.7 482.746L1100.67 480.66H1101.99L1099.52 483.309L1102.28 487H1101.01L1098.8 484.064ZM1105.24 482.975L1106.64 480.66H1107.91L1105.83 483.795L1107.97 487H1106.72L1105.25 484.627L1103.79 487H1102.53L1104.67 483.795L1102.59 480.66H1103.85L1105.24 482.975ZM1110.09 480.66L1110.12 481.457C1110.61 480.848 1111.24 480.543 1112.02 480.543C1113.36 480.543 1114.04 481.299 1114.05 482.811V487H1112.96V482.805C1112.96 482.348 1112.86 482.01 1112.65 481.791C1112.45 481.572 1112.13 481.463 1111.69 481.463C1111.34 481.463 1111.03 481.557 1110.77 481.744C1110.5 481.932 1110.29 482.178 1110.15 482.482V487H1109.06V480.66H1110.09ZM1117.78 485.529L1119.35 480.66H1120.45L1118.18 487H1117.35L1115.06 480.66H1116.16L1117.78 485.529ZM1123.62 482.975L1125.03 480.66H1126.29L1124.22 483.795L1126.36 487H1125.11L1123.64 484.627L1122.18 487H1120.92L1123.05 483.795L1120.98 480.66H1122.23L1123.62 482.975ZM1129.22 484.064L1128.54 484.773V487H1127.46V478H1128.54V483.443L1129.12 482.746L1131.09 480.66H1132.41L1129.95 483.309L1132.7 487H1131.43L1129.22 484.064ZM1134.65 480.66V487.732C1134.65 488.951 1134.1 489.561 1132.99 489.561C1132.75 489.561 1132.53 489.525 1132.33 489.455V488.588C1132.46 488.619 1132.62 488.635 1132.82 488.635C1133.06 488.635 1133.25 488.568 1133.37 488.436C1133.5 488.307 1133.57 488.08 1133.57 487.756V480.66H1134.65ZM1133.46 478.979C1133.46 478.807 1133.51 478.66 1133.61 478.539C1133.72 478.414 1133.88 478.352 1134.09 478.352C1134.3 478.352 1134.46 478.412 1134.57 478.533C1134.68 478.654 1134.73 478.803 1134.73 478.979C1134.73 479.154 1134.68 479.301 1134.57 479.418C1134.46 479.535 1134.3 479.594 1134.09 479.594C1133.88 479.594 1133.72 479.535 1133.61 479.418C1133.51 479.301 1133.46 479.154 1133.46 478.979ZM1028.95 496.975L1030.35 494.66H1031.62L1029.54 497.795L1031.68 501H1030.43L1028.96 498.627L1027.5 501H1026.24L1028.38 497.795L1026.3 494.66H1027.56L1028.95 496.975ZM1034.87 499.529L1036.44 494.66H1037.54L1035.27 501H1034.44L1032.15 494.66H1033.25L1034.87 499.529ZM1039.71 494.66V501.732C1039.71 502.951 1039.15 503.561 1038.05 503.561C1037.81 503.561 1037.59 503.525 1037.38 503.455V502.588C1037.51 502.619 1037.67 502.635 1037.88 502.635C1038.12 502.635 1038.3 502.568 1038.43 502.436C1038.56 502.307 1038.62 502.08 1038.62 501.756V494.66H1039.71ZM1038.51 492.979C1038.51 492.807 1038.56 492.66 1038.67 492.539C1038.78 492.414 1038.94 492.352 1039.14 492.352C1039.35 492.352 1039.51 492.412 1039.62 492.533C1039.73 492.654 1039.79 492.803 1039.79 492.979C1039.79 493.154 1039.73 493.301 1039.62 493.418C1039.51 493.535 1039.35 493.594 1039.14 493.594C1038.93 493.594 1038.77 493.535 1038.67 493.418C1038.56 493.301 1038.51 493.154 1038.51 492.979ZM1042.48 494.66L1042.52 495.457C1043 494.848 1043.63 494.543 1044.42 494.543C1045.76 494.543 1046.43 495.299 1046.44 496.811V501H1045.36V496.805C1045.36 496.348 1045.25 496.01 1045.04 495.791C1044.84 495.572 1044.52 495.463 1044.09 495.463C1043.74 495.463 1043.43 495.557 1043.16 495.744C1042.9 495.932 1042.69 496.178 1042.54 496.482V501H1041.46V494.66H1042.48ZM1050.17 499.529L1051.74 494.66H1052.85L1050.57 501H1049.75L1047.45 494.66H1048.56L1050.17 499.529ZM1056.02 496.975L1057.42 494.66H1058.69L1056.62 497.795L1058.75 501H1057.5L1056.04 498.627L1054.57 501H1053.31L1055.45 497.795L1053.38 494.66H1054.63L1056.02 496.975ZM1060.87 494.66L1060.9 495.457C1061.39 494.848 1062.02 494.543 1062.8 494.543C1064.14 494.543 1064.82 495.299 1064.83 496.811V501H1063.75V496.805C1063.74 496.348 1063.64 496.01 1063.43 495.791C1063.23 495.572 1062.91 495.463 1062.47 495.463C1062.12 495.463 1061.81 495.557 1061.55 495.744C1061.28 495.932 1061.08 496.178 1060.93 496.482V501H1059.84V494.66H1060.87ZM1068.59 496.975L1070 494.66H1071.26L1069.19 497.795L1071.33 501H1070.07L1068.61 498.627L1067.14 501H1065.88L1068.02 497.795L1065.95 494.66H1067.2L1068.59 496.975ZM1074.19 498.064L1073.51 498.773V501H1072.42V492H1073.51V497.443L1074.09 496.746L1076.06 494.66H1077.38L1074.91 497.309L1077.67 501H1076.4L1074.19 498.064ZM1079.62 494.66V501.732C1079.62 502.951 1079.07 503.561 1077.96 503.561C1077.72 503.561 1077.5 503.525 1077.3 503.455V502.588C1077.42 502.619 1077.59 502.635 1077.79 502.635C1078.03 502.635 1078.22 502.568 1078.34 502.436C1078.47 502.307 1078.54 502.08 1078.54 501.756V494.66H1079.62ZM1078.42 492.979C1078.42 492.807 1078.48 492.66 1078.58 492.539C1078.69 492.414 1078.85 492.352 1079.06 492.352C1079.27 492.352 1079.43 492.412 1079.54 492.533C1079.65 492.654 1079.7 492.803 1079.7 492.979C1079.7 493.154 1079.65 493.301 1079.54 493.418C1079.43 493.535 1079.27 493.594 1079.06 493.594C1078.85 493.594 1078.69 493.535 1078.58 493.418C1078.48 493.301 1078.42 493.154 1078.42 492.979ZM1083.46 499.529L1085.03 494.66H1086.14L1083.87 501H1083.04L1080.74 494.66H1081.85L1083.46 499.529ZM1088.21 494.66L1088.24 495.457C1088.73 494.848 1089.36 494.543 1090.14 494.543C1091.48 494.543 1092.16 495.299 1092.17 496.811V501H1091.09V496.805C1091.08 496.348 1090.98 496.01 1090.77 495.791C1090.57 495.572 1090.25 495.463 1089.81 495.463C1089.46 495.463 1089.15 495.557 1088.89 495.744C1088.62 495.932 1088.42 496.178 1088.27 496.482V501H1087.18V494.66H1088.21ZM1095.93 496.975L1097.34 494.66H1098.6L1096.53 497.795L1098.67 501H1097.41L1095.95 498.627L1094.48 501H1093.22L1095.36 497.795L1093.29 494.66H1094.54L1095.93 496.975ZM1101.53 498.064L1100.85 498.773V501H1099.76V492H1100.85V497.443L1101.43 496.746L1103.4 494.66H1104.72L1102.25 497.309L1105.01 501H1103.74L1101.53 498.064ZM1106.96 494.66V501.732C1106.96 502.951 1106.41 503.561 1105.3 503.561C1105.06 503.561 1104.84 503.525 1104.64 503.455V502.588C1104.76 502.619 1104.93 502.635 1105.13 502.635C1105.37 502.635 1105.56 502.568 1105.68 502.436C1105.81 502.307 1105.88 502.08 1105.88 501.756V494.66H1106.96ZM1105.76 492.979C1105.76 492.807 1105.82 492.66 1105.92 492.539C1106.03 492.414 1106.19 492.352 1106.4 492.352C1106.61 492.352 1106.77 492.412 1106.88 492.533C1106.99 492.654 1107.04 492.803 1107.04 492.979C1107.04 493.154 1106.99 493.301 1106.88 493.418C1106.77 493.535 1106.61 493.594 1106.4 493.594C1106.19 493.594 1106.03 493.535 1105.92 493.418C1105.82 493.301 1105.76 493.154 1105.76 492.979ZM1110.8 499.529L1112.37 494.66H1113.48L1111.21 501H1110.38L1108.08 494.66H1109.19L1110.8 499.529ZM1115.55 494.66L1115.58 495.457C1116.07 494.848 1116.7 494.543 1117.48 494.543C1118.82 494.543 1119.5 495.299 1119.51 496.811V501H1118.43V496.805C1118.42 496.348 1118.32 496.01 1118.11 495.791C1117.91 495.572 1117.59 495.463 1117.15 495.463C1116.8 495.463 1116.49 495.557 1116.23 495.744C1115.96 495.932 1115.76 496.178 1115.61 496.482V501H1114.52V494.66H1115.55ZM1122.26 494.66V501.732C1122.26 502.951 1121.71 503.561 1120.61 503.561C1120.37 503.561 1120.15 503.525 1119.94 503.455V502.588C1120.07 502.619 1120.23 502.635 1120.44 502.635C1120.68 502.635 1120.86 502.568 1120.99 502.436C1121.12 502.307 1121.18 502.08 1121.18 501.756V494.66H1122.26ZM1121.07 492.979C1121.07 492.807 1121.12 492.66 1121.23 492.539C1121.34 492.414 1121.49 492.352 1121.7 492.352C1121.91 492.352 1122.07 492.412 1122.18 492.533C1122.29 492.654 1122.35 492.803 1122.35 492.979C1122.35 493.154 1122.29 493.301 1122.18 493.418C1122.07 493.535 1121.91 493.594 1121.7 493.594C1121.49 493.594 1121.33 493.535 1121.23 493.418C1121.12 493.301 1121.07 493.154 1121.07 492.979ZM1125.79 498.064L1125.11 498.773V501H1124.02V492H1125.11V497.443L1125.69 496.746L1127.66 494.66H1128.98L1126.51 497.309L1129.27 501H1127.99L1125.79 498.064ZM1132.22 496.975L1133.63 494.66H1134.9L1132.82 497.795L1134.96 501H1133.71L1132.24 498.627L1130.78 501H1129.52L1131.66 497.795L1129.58 494.66H1130.84L1132.22 496.975ZM1138.48 500.232C1138.86 500.232 1139.2 500.115 1139.49 499.881C1139.78 499.646 1139.94 499.354 1139.97 499.002H1141C1140.98 499.365 1140.85 499.711 1140.62 500.039C1140.39 500.367 1140.08 500.629 1139.7 500.824C1139.31 501.02 1138.91 501.117 1138.48 501.117C1137.61 501.117 1136.93 500.83 1136.41 500.256C1135.91 499.678 1135.65 498.889 1135.65 497.889V497.707C1135.65 497.09 1135.77 496.541 1135.99 496.061C1136.22 495.58 1136.54 495.207 1136.96 494.941C1137.39 494.676 1137.89 494.543 1138.47 494.543C1139.18 494.543 1139.77 494.756 1140.24 495.182C1140.71 495.607 1140.96 496.16 1141 496.84H1139.97C1139.94 496.43 1139.78 496.094 1139.5 495.832C1139.22 495.566 1138.88 495.434 1138.47 495.434C1137.92 495.434 1137.49 495.633 1137.19 496.031C1136.89 496.426 1136.74 496.998 1136.74 497.748V497.953C1136.74 498.684 1136.89 499.246 1137.19 499.641C1137.49 500.035 1137.92 500.232 1138.48 500.232ZM1143.24 494.66L1143.28 495.457C1143.76 494.848 1144.39 494.543 1145.17 494.543C1146.51 494.543 1147.19 495.299 1147.2 496.811V501H1146.12V496.805C1146.11 496.348 1146.01 496.01 1145.8 495.791C1145.6 495.572 1145.28 495.463 1144.85 495.463C1144.49 495.463 1144.19 495.557 1143.92 495.744C1143.65 495.932 1143.45 496.178 1143.3 496.482V501H1142.21V494.66H1143.24ZM1150.93 499.529L1152.5 494.66H1153.61L1151.33 501H1150.51L1148.21 494.66H1149.32L1150.93 499.529ZM1155.77 494.66V501.732C1155.77 502.951 1155.21 503.561 1154.11 503.561C1153.87 503.561 1153.65 503.525 1153.45 503.455V502.588C1153.57 502.619 1153.74 502.635 1153.94 502.635C1154.18 502.635 1154.37 502.568 1154.49 502.436C1154.62 502.307 1154.68 502.08 1154.68 501.756V494.66H1155.77ZM1154.57 492.979C1154.57 492.807 1154.62 492.66 1154.73 492.539C1154.84 492.414 1155 492.352 1155.21 492.352C1155.42 492.352 1155.58 492.412 1155.69 492.533C1155.79 492.654 1155.85 492.803 1155.85 492.979C1155.85 493.154 1155.79 493.301 1155.69 493.418C1155.58 493.535 1155.42 493.594 1155.21 493.594C1154.99 493.594 1154.84 493.535 1154.73 493.418C1154.62 493.301 1154.57 493.154 1154.57 492.979ZM1159.29 498.064L1158.61 498.773V501H1157.53V492H1158.61V497.443L1159.19 496.746L1161.16 494.66H1162.48L1160.02 497.309L1162.77 501H1161.5L1159.29 498.064ZM1165.69 499.529L1167.26 494.66H1168.37L1166.1 501H1165.27L1162.97 494.66H1164.08L1165.69 499.529ZM1028.91 513.529L1030.48 508.66H1031.59L1029.32 515H1028.49L1026.19 508.66H1027.3L1028.91 513.529ZM1034.76 510.975L1036.17 508.66H1037.43L1035.36 511.795L1037.5 515H1036.24L1034.78 512.627L1033.31 515H1032.05L1034.19 511.795L1032.12 508.66H1033.37L1034.76 510.975ZM1041.01 514.232C1041.4 514.232 1041.74 514.115 1042.03 513.881C1042.31 513.646 1042.47 513.354 1042.51 513.002H1043.53C1043.51 513.365 1043.39 513.711 1043.16 514.039C1042.93 514.367 1042.62 514.629 1042.23 514.824C1041.85 515.02 1041.44 515.117 1041.01 515.117C1040.15 515.117 1039.46 514.83 1038.95 514.256C1038.44 513.678 1038.19 512.889 1038.19 511.889V511.707C1038.19 511.09 1038.3 510.541 1038.53 510.061C1038.75 509.58 1039.08 509.207 1039.5 508.941C1039.93 508.676 1040.43 508.543 1041.01 508.543C1041.72 508.543 1042.31 508.756 1042.78 509.182C1043.25 509.607 1043.5 510.16 1043.53 510.84H1042.51C1042.47 510.43 1042.32 510.094 1042.04 509.832C1041.76 509.566 1041.42 509.434 1041.01 509.434C1040.46 509.434 1040.03 509.633 1039.72 510.031C1039.42 510.426 1039.27 510.998 1039.27 511.748V511.953C1039.27 512.684 1039.42 513.246 1039.72 513.641C1040.02 514.035 1040.45 514.232 1041.01 514.232ZM1045.87 508.66V515.732C1045.87 516.951 1045.32 517.561 1044.21 517.561C1043.97 517.561 1043.75 517.525 1043.55 517.455V516.588C1043.67 516.619 1043.84 516.635 1044.04 516.635C1044.28 516.635 1044.47 516.568 1044.59 516.436C1044.72 516.307 1044.79 516.08 1044.79 515.756V508.66H1045.87ZM1044.67 506.979C1044.67 506.807 1044.73 506.66 1044.83 506.539C1044.94 506.414 1045.1 506.352 1045.31 506.352C1045.52 506.352 1045.68 506.412 1045.79 506.533C1045.9 506.654 1045.95 506.803 1045.95 506.979C1045.95 507.154 1045.9 507.301 1045.79 507.418C1045.68 507.535 1045.52 507.594 1045.31 507.594C1045.1 507.594 1044.94 507.535 1044.83 507.418C1044.73 507.301 1044.67 507.154 1044.67 506.979ZM1049.39 512.064L1048.71 512.773V515H1047.63V506H1048.71V511.443L1049.29 510.746L1051.27 508.66H1052.58L1050.12 511.309L1052.87 515H1051.6L1049.39 512.064ZM1054.82 508.66V515.732C1054.82 516.951 1054.27 517.561 1053.16 517.561C1052.93 517.561 1052.71 517.525 1052.5 517.455V516.588C1052.63 516.619 1052.79 516.635 1052.99 516.635C1053.24 516.635 1053.42 516.568 1053.54 516.436C1053.67 516.307 1053.74 516.08 1053.74 515.756V508.66H1054.82ZM1053.63 506.979C1053.63 506.807 1053.68 506.66 1053.79 506.539C1053.89 506.414 1054.05 506.352 1054.26 506.352C1054.47 506.352 1054.63 506.412 1054.74 506.533C1054.85 506.654 1054.9 506.803 1054.9 506.979C1054.9 507.154 1054.85 507.301 1054.74 507.418C1054.63 507.535 1054.47 507.594 1054.26 507.594C1054.05 507.594 1053.89 507.535 1053.79 507.418C1053.68 507.301 1053.63 507.154 1053.63 506.979ZM1058.34 512.064L1057.66 512.773V515H1056.58V506H1057.66V511.443L1058.24 510.746L1060.22 508.66H1061.54L1059.07 511.309L1061.82 515H1060.55L1058.34 512.064ZM1064.75 513.529L1066.32 508.66H1067.43L1065.15 515H1064.33L1062.03 508.66H1063.14L1064.75 513.529ZM1069.59 508.66V515.732C1069.59 516.951 1069.04 517.561 1067.93 517.561C1067.69 517.561 1067.47 517.525 1067.27 517.455V516.588C1067.39 516.619 1067.56 516.635 1067.76 516.635C1068 516.635 1068.19 516.568 1068.31 516.436C1068.44 516.307 1068.5 516.08 1068.5 515.756V508.66H1069.59ZM1068.39 506.979C1068.39 506.807 1068.45 506.66 1068.55 506.539C1068.66 506.414 1068.82 506.352 1069.03 506.352C1069.24 506.352 1069.4 506.412 1069.51 506.533C1069.62 506.654 1069.67 506.803 1069.67 506.979C1069.67 507.154 1069.62 507.301 1069.51 507.418C1069.4 507.535 1069.24 507.594 1069.03 507.594C1068.81 507.594 1068.66 507.535 1068.55 507.418C1068.45 507.301 1068.39 507.154 1068.39 506.979ZM1073.11 512.064L1072.43 512.773V515H1071.35V506H1072.43V511.443L1073.01 510.746L1074.98 508.66H1076.3L1073.84 511.309L1076.59 515H1075.32L1073.11 512.064ZM1079.55 510.975L1080.96 508.66H1082.22L1080.15 511.795L1082.29 515H1081.03L1079.57 512.627L1078.1 515H1076.84L1078.98 511.795L1076.91 508.66H1078.16L1079.55 510.975ZM1085.47 513.529L1087.04 508.66H1088.14L1085.87 515H1085.04L1082.75 508.66H1083.86L1085.47 513.529ZM1091.65 514.232C1092.04 514.232 1092.37 514.115 1092.66 513.881C1092.95 513.646 1093.11 513.354 1093.14 513.002H1094.17C1094.15 513.365 1094.02 513.711 1093.79 514.039C1093.56 514.367 1093.25 514.629 1092.87 514.824C1092.48 515.02 1092.08 515.117 1091.65 515.117C1090.79 515.117 1090.1 514.83 1089.59 514.256C1089.08 513.678 1088.82 512.889 1088.82 511.889V511.707C1088.82 511.09 1088.94 510.541 1089.16 510.061C1089.39 509.58 1089.71 509.207 1090.14 508.941C1090.56 508.676 1091.06 508.543 1091.64 508.543C1092.35 508.543 1092.94 508.756 1093.41 509.182C1093.88 509.607 1094.14 510.16 1094.17 510.84H1093.14C1093.11 510.43 1092.96 510.094 1092.67 509.832C1092.4 509.566 1092.05 509.434 1091.64 509.434C1091.09 509.434 1090.66 509.633 1090.36 510.031C1090.06 510.426 1089.91 510.998 1089.91 511.748V511.953C1089.91 512.684 1090.06 513.246 1090.36 513.641C1090.66 514.035 1091.09 514.232 1091.65 514.232Z" fill="#638DCD"/>
</g>
<g id="face">
<path id="Vector_42" d="M1438 282.441C1426.84 283.867 1414.87 287.699 1409.25 296.862C1406.5 301.346 1405.61 306.606 1403.5 311.382C1397.66 324.561 1383.47 332.431 1373.23 342.983C1359.88 356.735 1353.25 377.458 1361.12 394.531C1364.17 401.142 1369.12 406.805 1372.88 413.088C1383.35 430.617 1383.91 451.669 1384.21 471.764L1384.79 511.276C1384.88 517.309 1384.95 523.464 1383.02 529.218C1381.08 534.972 1376.76 540.36 1370.63 542.177C1377.39 544.378 1384.75 544.394 1391.52 542.223C1398.3 540.052 1404.1 535.818 1408.02 530.194C1408.86 535.17 1408.38 540.263 1406.63 545.026C1404.88 549.789 1401.92 554.077 1397.99 557.513C1414.66 553.83 1428.63 542.453 1437.44 528.67C1446.24 514.888 1450.32 498.857 1452.15 482.879C1453.12 474.428 1453.46 465.689 1450.62 457.62C1448.61 451.937 1445.12 446.841 1441.8 441.728C1433.25 428.547 1425.55 414.528 1422.79 399.313C1420.04 384.098 1422.8 367.405 1433.33 355.548C1437.37 350.967 1442.46 347.3 1448.22 344.821C1453.98 342.342 1460.26 341.115 1466.6 341.231C1472.93 341.461 1479.1 343.213 1484.5 346.32C1489.91 349.426 1494.38 353.783 1497.48 358.974C1499.91 363.27 1503.37 369.093 1508.3 367.583C1509.21 367.22 1510.1 366.81 1510.96 366.354C1516.46 364.007 1522.7 368.638 1525.12 373.828C1532.77 390.198 1518.69 408.069 1517.23 425.89C1515.88 442.468 1525.72 458.102 1537.5 470.527C1557.83 491.9 1584.39 507.214 1613.89 514.579C1609.57 513.557 1605.7 511.299 1602.81 508.118C1614.8 508.568 1626.81 507.623 1638.56 505.305C1625.77 496.258 1612.88 487.134 1602.21 475.93C1591.53 464.727 1583.07 451.171 1580.77 436.294C1577.68 416.33 1585.6 394.71 1576.54 376.415C1568.26 359.688 1547.72 350.342 1540.22 333.294C1532.6 315.978 1527.66 300.934 1507.49 293.396C1485.48 285.168 1461.78 279.403 1438 282.441Z" fill="#FFCB65"/>
<path id="Vector_43" d="M1533.49 392.453C1533.49 428.737 1493.89 458.731 1455.24 458.731C1436.67 458.731 1418.87 451.81 1405.74 439.489C1392.62 427.168 1385.24 410.458 1385.24 393.034C1385.24 375.61 1392.62 358.9 1405.74 346.58C1418.87 334.259 1436.67 327.337 1455.24 327.337C1493.89 327.337 1533.49 356.17 1533.49 392.453Z" fill="#FBBEBE"/>
</g>
</g>
<defs>
<clipPath id="clip0">
<rect width="1948" height="1313" fill="white"/>
</clipPath>
</defs>
</svg>
